<?xml version="1.0" standalone="no"?>
<!DOCTYPE svg PUBLIC "-//W3C//DTD SVG 20010904//EN"
 "http://www.w3.org/TR/2001/REC-SVG-20010904/DTD/svg10.dtd">
<svg version="1.0" xmlns="http://www.w3.org/2000/svg"
 width="960.000000pt" height="540.000000pt" viewBox="0 0 960.000000 540.000000"
 preserveAspectRatio="xMidYMid meet">

<g transform="translate(0.000000,540.000000) scale(0.100000,-0.100000)"
fill="#000000" stroke="none">
<path d="M0 2700 l0 -2700 1173 0 c644 0 1182 3 1195 6 33 9 28 40 -10 54 -30
11 -31 13 -13 20 17 7 17 9 3 9 -36 2 -245 65 -290 87 -55 28 -73 55 -62 92 4
15 7 30 6 34 -3 13 72 67 102 74 17 4 42 11 56 17 48 19 155 58 193 70 20 6
37 15 37 19 0 4 10 8 21 8 19 0 20 2 8 16 -8 9 -13 29 -12 43 2 23 2 24 -6 6
-8 -17 -10 -16 -10 12 -1 17 5 34 12 37 8 4 5 10 -10 22 -13 9 -23 22 -23 28
-1 12 -82 76 -112 88 -27 11 -22 28 12 39 17 6 30 15 30 20 0 5 11 9 23 9 26
0 67 30 67 49 0 6 9 11 21 11 15 0 19 4 15 16 -3 9 -6 21 -6 27 0 7 -7 4 -14
-5 -11 -16 -14 -9 -19 50 -4 41 -3 68 3 70 6 2 10 10 10 18 0 8 9 14 19 14 16
0 21 10 26 55 4 30 12 59 19 64 6 5 47 12 91 16 44 4 86 10 94 15 7 4 34 3 60
-2 25 -5 64 -11 86 -14 22 -2 74 -9 115 -14 41 -5 120 -12 175 -15 130 -9 144
-11 245 -29 62 -11 147 -14 317 -12 l231 2 20 -46 c12 -25 26 -65 32 -90 7
-25 17 -48 22 -51 6 -4 1 -12 -12 -19 -18 -10 -24 -9 -31 1 -6 10 -9 11 -9 2
0 -8 -12 -12 -32 -11 -18 1 -60 -2 -93 -6 -33 -4 -62 -7 -64 -6 -10 4 -25 -37
-22 -62 2 -23 -2 -27 -38 -33 -44 -7 -46 -11 -31 -67 9 -32 16 -38 46 -44 32
-6 140 -1 260 12 51 6 51 6 75 -33 12 -21 28 -41 35 -45 6 -4 17 -21 24 -38
15 -36 50 -57 111 -66 24 -4 51 -13 59 -20 9 -7 36 -17 60 -23 25 -6 71 -22
103 -36 31 -15 69 -28 83 -29 15 -2 33 -10 39 -20 7 -9 19 -16 28 -16 24 0 47
-11 42 -20 -3 -5 -15 -6 -27 -2 -12 3 -19 1 -15 -4 3 -6 -9 -11 -29 -11 -19
-1 -34 3 -34 8 0 5 8 9 17 9 9 0 14 3 10 6 -3 4 -14 3 -24 -1 -10 -5 -26 -7
-35 -6 -10 1 -23 -10 -32 -27 -8 -16 -24 -32 -36 -35 -25 -6 -27 -27 -2 -27
10 0 22 -4 28 -9 31 -29 91 -35 524 -51 540 -20 765 -32 770 -40 3 -4 66 -4
140 1 74 5 251 13 392 18 208 8 262 13 281 26 14 9 58 19 99 22 67 6 159 32
115 33 -11 0 -15 4 -11 12 5 7 2 9 -9 5 -8 -3 -21 0 -27 8 -9 10 -5 15 19 20
49 11 56 28 32 78 -22 46 -48 62 -138 86 -47 13 -54 25 -23 41 11 6 31 31 46
55 14 25 32 45 38 45 7 0 20 8 30 18 15 18 57 34 119 47 15 3 27 11 27 18 0 7
13 27 29 44 33 37 58 41 236 45 l119 3 -1 25 c-1 50 -3 57 -28 68 -30 14 -33
32 -5 32 11 0 20 5 20 10 0 6 10 10 23 10 12 0 28 9 35 20 7 12 17 18 22 15 5
-3 20 1 32 9 13 8 45 20 71 27 64 16 84 50 62 103 -9 20 -12 37 -8 38 5 0 14
2 22 2 17 1 23 33 10 58 -9 17 0 25 13 12 3 -3 77 -5 164 -6 125 0 169 3 204
17 25 9 83 21 130 26 94 11 108 13 130 22 8 3 42 8 75 11 33 3 89 9 125 15
128 18 192 22 186 13 -3 -5 7 -9 22 -8 24 1 27 -3 30 -34 2 -19 8 -37 13 -40
5 -4 11 -33 13 -66 5 -66 13 -94 28 -94 5 0 8 -27 7 -60 -2 -66 -3 -66 -77
-74 -19 -1 -38 -9 -43 -17 -4 -8 -14 -14 -21 -14 -7 0 -28 -4 -46 -9 -25 -6
-42 -3 -74 14 -24 12 -44 18 -46 12 -2 -6 -17 -6 -45 0 -48 11 -285 23 -464
23 -111 0 -123 -2 -145 -22 -13 -12 -34 -23 -47 -25 -19 -2 -27 -13 -37 -48
-19 -62 -18 -69 13 -81 32 -12 235 -34 453 -49 250 -17 399 -30 460 -40 30 -5
136 -21 235 -35 99 -15 238 -37 309 -51 70 -13 143 -24 162 -24 18 0 35 -4 38
-9 3 -4 32 -16 66 -25 142 -40 230 -96 230 -146 0 -73 -146 -132 -491 -199
-57 -12 -126 -25 -154 -31 -27 -5 -81 -15 -120 -21 -38 -7 -63 -15 -55 -17 16
-6 -109 -41 -147 -41 -13 -1 -23 -6 -23 -12 0 -6 6 -9 14 -6 22 9 25 -2 11
-30 -8 -15 -12 -30 -9 -35 3 -4 239 -8 525 -8 l519 0 -2 1303 -3 1302 -24 -3
c-13 -2 -39 -12 -57 -23 -19 -10 -41 -19 -48 -19 -8 0 -16 -5 -18 -12 -3 -8
-52 -11 -174 -10 -93 1 -198 -3 -234 -8 -127 -18 -335 -52 -350 -58 -8 -3 -17
-6 -20 -6 -38 -9 -107 -31 -116 -37 -6 -5 -21 -10 -33 -12 -13 -2 -27 -10 -32
-18 -7 -12 -9 -12 -9 1 -1 9 -5 6 -10 -8 -6 -13 -18 -22 -30 -22 -18 0 -19 -3
-10 -20 9 -16 8 -20 -5 -20 -8 0 -15 -7 -15 -16 0 -10 -6 -14 -14 -11 -10 4
-13 1 -9 -9 3 -7 11 -14 19 -14 8 0 14 -4 14 -10 0 -5 -9 -10 -21 -10 -17 0
-20 -4 -15 -24 8 -33 -2 -56 -25 -56 -12 0 -19 7 -19 19 0 11 -5 23 -11 27 -6
3 -9 19 -7 35 3 16 1 29 -4 29 -5 0 -13 11 -18 25 -6 15 -17 25 -29 25 -32 0
-35 20 -4 21 55 2 -35 17 -142 24 -77 4 -129 1 -225 -15 -69 -11 -135 -21
-147 -23 -12 -1 -25 -5 -29 -9 -4 -5 -17 -8 -28 -8 -12 0 -32 -7 -44 -16 -18
-12 -22 -25 -22 -65 0 -27 -9 -106 -20 -176 -11 -69 -19 -128 -16 -130 2 -3
-3 -13 -12 -23 -38 -42 -47 -55 -52 -74 -5 -17 -18 -23 -66 -30 -85 -12 -110
5 -120 80 -6 55 -7 55 -36 49 -17 -4 -50 -20 -73 -36 -24 -16 -58 -34 -74 -40
-17 -6 -31 -15 -31 -19 0 -11 -55 -38 -105 -52 -52 -14 -116 -13 -125 2 -4 6
-10 11 -14 11 -3 -1 -7 -1 -8 0 -2 0 -11 2 -22 4 -25 5 -37 18 -39 43 l-1 21
-32 -19 c-35 -23 -44 -24 -44 -10 0 6 6 10 13 10 19 0 66 47 132 134 33 43 79
101 103 129 24 29 45 61 48 73 3 12 16 27 30 34 13 8 24 17 24 22 0 5 5 6 12
2 7 -5 8 -3 4 5 -6 9 -12 9 -25 -3 -10 -9 -26 -16 -37 -16 -17 1 -16 2 4 14
39 21 89 109 133 235 11 30 26 62 34 71 34 37 85 309 85 449 0 27 5 53 10 56
6 3 10 -3 10 -14 0 -15 6 -21 23 -20 25 1 177 -28 162 -31 -5 -1 35 -10 90
-20 127 -24 427 -27 507 -6 58 15 131 47 136 59 2 4 8 5 13 1 5 -3 14 -2 20 2
18 11 160 7 172 -5 6 -6 18 -11 28 -11 9 0 36 -11 61 -24 61 -32 78 -35 273
-41 190 -6 340 7 367 31 9 9 23 14 30 12 7 -3 19 2 26 11 9 11 15 12 18 4 7
-16 64 4 64 23 0 23 55 16 117 -14 72 -36 154 -64 162 -56 3 3 7 552 9 1220
l2 1214 -1022 -2 -1023 -3 -7 -70 c-4 -39 -14 -86 -22 -105 -17 -41 -98 -130
-118 -130 -11 0 -11 -2 1 -9 9 -6 -2 -11 -32 -15 -37 -6 -45 -11 -44 -27 1
-10 5 -19 9 -19 14 0 8 -30 -7 -36 -8 -4 -15 -13 -15 -22 0 -12 -3 -13 -12 -4
-7 7 -20 12 -30 12 -11 0 -15 5 -12 15 4 8 1 15 -5 15 -14 0 -15 89 -1 125 7
17 7 24 0 20 -6 -4 -10 26 -10 83 0 95 -16 155 -45 166 -21 8 -218 8 -239 0
-11 -4 -16 -19 -16 -45 0 -28 -5 -41 -20 -49 -21 -11 -121 -10 -114 1 2 4 -3
12 -11 19 -8 7 -15 21 -15 31 0 32 -24 45 -83 43 -57 -2 -87 -18 -87 -47 0 -8
-6 -20 -13 -26 -8 -6 -20 -30 -27 -53 -8 -24 -30 -60 -50 -82 -41 -45 -116
-96 -142 -96 -10 0 -18 -4 -18 -9 0 -11 -110 -25 -160 -22 -19 2 -47 9 -62 17
-15 8 -36 14 -47 14 -11 0 -44 11 -73 24 -58 27 -148 56 -172 56 -9 0 -16 5
-16 11 0 6 -12 9 -26 7 -20 -2 -29 -12 -39 -40 -7 -21 -10 -38 -6 -38 3 0 -2
-5 -11 -11 -10 -5 -18 -16 -18 -23 0 -13 -69 -48 -122 -61 -39 -10 -55 -32
-40 -53 7 -10 15 -24 19 -32 3 -8 21 -35 38 -60 49 -69 88 -147 82 -164 -5
-13 38 -23 117 -26 22 -1 66 42 66 64 0 21 42 85 82 124 69 68 188 102 358
102 131 0 210 -48 278 -169 35 -62 36 -68 36 -170 1 -90 -3 -115 -23 -163 -13
-32 -28 -58 -35 -58 -6 0 -31 11 -55 25 -70 40 -61 29 25 -30 43 -29 93 -67
109 -82 17 -15 26 -25 21 -20 -16 11 -26 8 -26 -7 0 -29 -20 -26 -53 6 -19 18
-47 42 -62 53 -15 11 -53 39 -84 62 -31 24 -105 67 -166 98 -100 49 -128 71
-59 45 30 -12 47 -4 24 10 -21 14 5 13 33 -1 20 -9 20 -9 5 4 -14 11 -16 20
-9 44 l9 31 -57 11 c-95 18 -121 17 -121 -4 0 -8 -6 -15 -12 -16 -7 0 9 -7 36
-14 27 -8 54 -19 60 -26 8 -9 6 -9 -12 1 -19 9 -27 9 -40 -3 -15 -13 -29 -13
-107 -1 -80 12 -260 18 -210 7 86 -19 47 -31 -106 -34 l-137 -3 5 -118 c3 -80
1 -118 -6 -118 -6 0 -12 -10 -12 -22 -1 -13 -5 4 -10 36 -6 42 -5 63 3 73 9
11 8 17 -3 25 -11 7 -11 11 -1 15 16 6 15 28 -3 43 -8 7 -15 23 -15 36 0 24
-1 24 -115 24 -72 0 -115 4 -115 10 0 6 8 13 18 16 9 3 25 10 34 15 22 11 48
12 48 1 0 -8 179 -6 255 2 22 3 43 5 48 5 4 1 7 5 7 9 0 4 -37 4 -82 0 -91
-10 -209 -2 -219 14 -5 8 -41 8 -117 0 -123 -11 -139 -16 -121 -38 9 -11 7
-14 -11 -14 -36 0 -183 -38 -236 -61 -45 -20 -107 -60 -239 -155 -89 -64 -234
-210 -236 -237 0 -7 -2 -41 -3 -77 -2 -36 -4 -74 -5 -85 l-2 -20 -15 20 c-9
13 -12 29 -8 45 3 14 8 44 9 67 2 24 7 53 10 65 6 18 -5 11 -45 -27 -29 -27
-47 -40 -39 -29 19 28 94 91 119 99 11 3 17 12 14 20 -3 8 0 21 8 31 27 33
113 117 147 142 66 49 90 78 36 42 -165 -110 -150 -102 -153 -79 -1 10 -2 26
-3 34 -4 29 -38 48 -103 54 -35 4 -71 13 -79 20 -9 7 -30 11 -48 9 -43 -4 -57
-44 -58 -159 -1 -74 2 -91 22 -120 14 -21 31 -34 45 -34 29 -1 27 -8 -23 -85
-23 -36 -57 -88 -74 -117 -51 -82 -52 -82 -121 -27 -88 71 -103 108 -97 237 3
56 10 126 16 156 9 47 7 73 -14 177 -42 203 -32 273 47 357 39 41 49 47 153
82 73 25 127 31 180 21 11 -3 32 -5 48 -5 15 -1 35 -9 46 -20 10 -10 30 -21
45 -25 15 -4 46 -24 69 -45 23 -20 53 -45 67 -54 29 -20 95 -22 130 -4 32 16
80 20 80 6 0 -6 6 -9 13 -6 6 2 19 1 27 -4 9 -4 29 -2 45 6 17 7 47 20 67 29
21 9 57 39 80 66 24 28 51 50 60 50 28 0 32 22 8 40 -23 17 -129 40 -275 60
-38 6 -81 15 -95 21 -14 6 -61 13 -104 15 -66 4 -82 2 -100 -14 -38 -33 -69
-41 -103 -27 -38 16 -69 46 -78 75 -4 13 -10 19 -14 14 -11 -16 -41 -12 -41 5
0 30 -36 48 -135 69 -118 24 -147 18 -199 -39 l-38 -40 -66 6 c-104 9 -129 20
-136 61 -5 23 -2 45 9 66 19 38 31 133 18 141 -5 3 -27 2 -49 -3 -21 -5 -77
-12 -124 -16 -49 -3 -103 -14 -127 -25 -23 -10 -48 -19 -56 -19 -8 0 -20 -6
-27 -14 -9 -12 -4 -18 32 -34 24 -11 62 -23 86 -27 50 -8 64 -29 81 -120 20
-106 16 -137 -25 -176 -27 -26 -34 -40 -31 -59 6 -30 -17 -90 -34 -90 -7 0 -9
-3 -6 -7 4 -3 -12 -15 -35 -25 -38 -17 -62 -18 -118 -3 -8 2 -19 4 -25 4 -5 1
-28 17 -50 36 -22 19 -43 35 -47 35 -3 0 -17 17 -29 38 -13 20 -36 51 -52 67
-26 27 -41 54 -62 110 -5 11 -11 90 -14 175 l-6 155 -280 0 -280 0 3 -45 c2
-25 8 -49 13 -55 18 -19 10 -89 -14 -115 -13 -14 -26 -32 -29 -41 -9 -24 -81
-32 -124 -14 -41 17 -133 111 -134 136 0 9 -7 31 -16 49 -9 17 -17 42 -16 55
0 15 -8 25 -22 29 -11 3 -513 6 -1113 6 l-1093 0 0 -2700z m4380 2270 c0 -5
-9 -10 -21 -10 -11 0 -17 5 -14 10 3 6 13 10 21 10 8 0 14 -4 14 -10z m-1909
-282 c7 -13 17 -26 22 -30 6 -3 17 -30 24 -58 13 -51 13 -53 -11 -75 -16 -15
-27 -19 -30 -12 -3 9 -7 8 -14 -2 -15 -21 -63 12 -100 70 -35 52 -39 69 -19
69 7 0 23 14 35 30 28 38 75 42 93 8z m2799 -87 c0 -5 -11 -11 -25 -13 -28 -6
-35 8 -7 15 28 8 32 7 32 -2z m980 -11 c0 -5 -2 -10 -4 -10 -3 0 -8 5 -11 10
-3 6 -1 10 4 10 6 0 11 -4 11 -10z m34 -92 c80 -47 209 -143 245 -182 21 -23
22 -26 7 -26 -10 0 -70 39 -134 86 -64 47 -142 99 -174 115 -32 16 -58 34 -58
39 0 21 47 8 114 -32z m-1254 3 c0 -5 -14 -14 -32 -22 -38 -15 -175 -116 -203
-149 -11 -13 -14 -20 -7 -16 6 4 12 3 12 -3 0 -6 12 -8 30 -4 33 6 38 -3 15
-33 -8 -10 -15 -29 -15 -41 0 -13 -4 -23 -8 -23 -4 0 -13 -15 -20 -32 -13 -36
-6 -78 12 -78 15 0 41 -41 38 -62 -2 -9 6 -22 17 -28 12 -6 20 -14 20 -18 -3
-20 3 -30 26 -40 22 -10 24 -14 13 -32 -14 -21 -38 -26 -53 -11 -6 6 -32 11
-60 12 -27 1 -59 8 -70 16 -31 21 -54 17 -48 -8 5 -19 3 -21 -27 -14 -50 11
-118 56 -131 87 -14 34 -4 99 23 144 19 33 38 45 38 24 0 -5 9 -10 20 -10 22
0 23 1 14 24 -3 9 -9 14 -13 12 -3 -2 -7 7 -7 20 -1 13 3 24 10 24 6 0 32 20
56 45 123 125 350 266 350 216z m-1549 -157 c9 -11 24 -39 33 -63 16 -42 16
-45 -2 -65 -11 -11 -17 -27 -14 -35 7 -20 -76 -8 -92 14 -6 9 -18 17 -26 18
-30 5 -40 19 -40 58 0 21 -4 39 -10 39 -5 0 -10 11 -10 24 0 25 16 36 55 36
13 0 27 4 30 10 7 12 53 -10 76 -36z m2928 -44 c42 -21 77 -69 87 -119 5 -24
3 -31 -10 -31 -20 0 -36 18 -87 96 -53 83 -52 86 10 54z m-777 -67 c5 -7 7
-17 3 -23 -3 -5 -2 -10 4 -10 5 0 13 4 16 10 6 9 109 -40 130 -62 10 -11 3 -9
-42 9 -10 4 -14 2 -10 -4 5 -7 0 -9 -13 -6 -11 3 -23 10 -26 15 -4 6 3 8 17 3
18 -5 16 -2 -9 14 -37 24 -66 29 -36 6 16 -13 13 -12 -20 1 -38 15 -50 15 -89
-1 -14 -6 -16 -4 -10 11 3 11 12 23 20 27 7 4 13 16 13 27 0 23 34 32 39 10 2
-8 8 -20 13 -27z m1108 6 c28 -17 55 -40 61 -51 11 -20 9 -20 -22 3 -19 12
-37 27 -41 33 -3 5 -8 -4 -10 -20 l-4 -29 -17 38 c-10 20 -22 37 -27 37 -6 0
-10 5 -10 10 0 17 17 11 70 -21z m-1226 -55 c-16 -13 -16 -15 -1 -10 30 9 19
-3 -20 -22 -21 -10 -45 -17 -53 -15 -8 1 -26 -7 -40 -18 -16 -14 -19 -19 -7
-15 25 8 21 1 -10 -20 -24 -15 -26 -15 -14 -1 11 14 11 17 0 17 -21 0 6 23 76
64 63 37 105 49 69 20z m1230 -101 c4 -28 2 -54 -2 -57 -9 -5 -22 61 -22 107
0 39 17 3 24 -50z m-254 39 l23 -18 -25 -52 c-27 -55 -27 -57 1 -43 23 13 46
-2 37 -24 -4 -12 -13 -15 -28 -12 -12 3 -30 1 -41 -4 -25 -14 -46 3 -28 24 9
12 8 16 -4 21 -8 3 -15 12 -15 20 0 20 42 106 51 106 4 0 17 -8 29 -18z
m-1993 -74 c-2 -13 -4 -5 -4 17 -1 22 1 32 4 23 2 -10 2 -28 0 -40z m1463 16
c38 -20 77 -45 87 -56 18 -21 18 -21 -4 -9 -13 6 -23 9 -23 6 0 -4 -16 3 -36
15 -58 37 -49 16 12 -24 31 -21 76 -58 101 -83 29 -29 49 -41 55 -35 5 5 18 7
29 5 17 -5 17 -7 -6 -25 -29 -23 -58 -85 -52 -110 3 -9 2 -18 -3 -20 -4 -2
-10 -21 -13 -43 l-6 -40 22 39 c20 37 47 59 47 39 0 -5 -15 -31 -33 -58 -40
-62 -70 -137 -57 -145 5 -3 3 -16 -5 -30 -16 -28 -39 -77 -48 -102 -12 -35
-25 -18 -16 20 6 20 11 46 13 57 2 11 11 39 19 62 9 22 13 43 11 46 -3 2 4 22
15 43 11 22 25 68 30 104 5 36 16 82 25 102 15 35 15 37 -3 43 -14 4 -32 -7
-66 -40 -53 -51 -60 -53 -75 -26 -9 17 -4 24 32 49 24 16 51 32 61 35 28 11
17 26 -64 89 -41 31 -73 61 -72 67 2 5 -13 19 -32 31 -19 12 -35 24 -35 26 0
11 28 1 90 -32z m747 -1 c-3 -10 -5 -4 -5 12 0 17 2 24 5 18 2 -7 2 -21 0 -30z
m-827 7 c33 -25 19 -25 -22 0 -18 11 -26 20 -18 20 8 0 26 -9 40 -20z m-618
-45 c-34 -25 -65 -45 -70 -45 -4 0 -25 -12 -45 -26 -45 -30 -65 -22 -24 10 30
23 177 104 192 105 5 1 -19 -19 -53 -44z m1443 -83 c-6 -42 -8 -44 -37 -40
-42 7 -93 -19 -78 -38 15 -17 5 -34 -19 -34 -10 0 -24 -7 -31 -15 -18 -22 -46
-18 -64 7 -15 21 -18 22 -73 9 -81 -18 -98 -18 -98 -1 0 19 85 42 137 38 24
-2 39 1 42 9 3 7 15 13 27 13 12 0 20 3 16 6 -7 7 -123 7 -186 -1 -43 -4 -44
-4 -16 6 17 7 104 13 195 15 151 2 165 4 167 21 1 10 6 38 10 63 7 39 8 41 11
16 2 -17 1 -50 -3 -74z m-25 78 c0 -5 -4 -10 -10 -10 -5 0 -10 5 -10 10 0 6 5
10 10 10 6 0 10 -4 10 -10z m-1395 -8 c-6 -5 -23 -19 -40 -31 -40 -30 -125
-111 -125 -119 1 -4 20 -16 43 -27 29 -14 42 -26 42 -40 0 -13 -6 -20 -17 -19
-10 1 -18 -2 -18 -7 0 -5 -7 -9 -16 -9 -12 0 -15 6 -10 25 4 15 2 25 -4 25 -6
0 -8 -4 -5 -10 9 -14 -4 -12 -19 3 -30 30 -27 52 11 89 55 53 147 127 158 127
6 1 6 -2 0 -7z m1124 -6 c14 -17 8 -19 -88 -36 -44 -8 -67 -8 -74 -1 -11 11
-9 12 63 35 59 19 85 19 99 2z m-1912 -28 c-3 -7 -5 -2 -5 12 0 14 2 19 5 13
2 -7 2 -19 0 -25z m1327 7 c3 -8 12 -15 21 -15 10 0 15 -9 15 -27 -1 -27 -1
-27 -15 -9 -8 11 -15 14 -15 8 0 -7 -4 -12 -10 -12 -5 0 -9 3 -9 8 4 24 -3 52
-12 52 -7 0 -9 -11 -5 -30 3 -19 2 -29 -4 -25 -11 7 -14 48 -3 58 11 12 31 8
37 -8z m-473 -28 c-8 -8 -11 -7 -11 4 0 20 13 34 18 19 3 -7 -1 -17 -7 -23z
m45 -4 c2 -18 -1 -35 -8 -39 -7 -4 -8 -3 -4 4 4 7 4 18 0 24 -12 19 -12 49 -1
45 5 -1 11 -17 13 -34z m362 7 c1 -16 -2 -30 -8 -30 -5 0 -10 14 -10 30 0 17
4 30 8 30 4 0 9 -13 10 -30z m450 3 c2 -9 -11 -13 -45 -13 -35 0 -44 -3 -33
-10 13 -9 13 -10 0 -10 -22 0 -38 19 -33 39 3 14 13 16 55 11 28 -3 53 -11 56
-17z m-721 -30 c-3 -10 -5 -2 -5 17 0 19 2 27 5 18 2 -10 2 -26 0 -35z m43 17
c0 -16 -4 -30 -10 -30 -5 0 -10 14 -10 30 0 17 5 30 10 30 6 0 10 -13 10 -30z
m1216 -10 c1 -32 -2 -40 -14 -38 -9 2 -15 6 -14 10 2 5 5 21 8 38 9 43 19 37
20 -10z m-1026 8 c0 -16 -3 -19 -11 -11 -6 6 -8 16 -5 22 11 17 16 13 16 -11z
m-260 -8 c0 -13 -7 -20 -18 -20 -26 0 -34 11 -21 27 17 20 39 16 39 -7z m100
-2 c0 -16 -3 -19 -11 -11 -6 6 -8 16 -5 22 11 17 16 13 16 -11z m30 8 c0 -8
-4 -17 -9 -21 -6 -3 -9 4 -8 15 1 23 17 28 17 6z m30 -6 c0 -11 -4 -20 -10
-20 -5 0 -10 9 -10 20 0 11 5 20 10 20 6 0 10 -9 10 -20z m40 -6 c0 -8 -4 -14
-10 -14 -5 0 -10 9 -10 21 0 11 5 17 10 14 6 -3 10 -13 10 -21z m-1132 -84 c0
-22 -1 -20 -13 10 -7 19 -13 49 -13 65 0 28 1 28 13 -10 8 -22 13 -51 13 -65z
m-44 53 c3 -21 9 -49 13 -63 l6 -25 -27 29 c-17 17 -26 36 -23 47 3 10 0 20
-6 22 -14 4 0 27 17 27 8 0 16 -16 20 -37z m606 27 c0 -5 8 -10 18 -10 14 0
12 -4 -8 -20 -30 -24 -40 -25 -40 -5 0 18 -12 19 -28 3 -8 -8 -15 -8 -25 1 -8
6 -22 9 -31 5 -16 -6 -23 16 -9 29 10 11 123 8 123 -3z m274 -5 c3 -9 0 -15
-9 -15 -9 0 -12 6 -9 15 4 8 7 15 9 15 2 0 5 -7 9 -15z m1455 -11 c3 -16 1
-17 -13 -5 -19 16 -21 34 -3 29 6 -3 14 -13 16 -24z m-2199 -4 c0 -5 -5 -10
-11 -10 -5 0 -7 5 -4 10 3 6 8 10 11 10 2 0 4 -4 4 -10z m750 -32 c0 -9 15
-13 42 -13 31 0 43 -4 46 -16 2 -10 -6 -19 -19 -22 -13 -4 -18 -10 -13 -18 5
-9 16 -2 37 21 23 26 39 34 73 37 40 3 44 1 45 -19 l2 -23 4 23 c4 19 11 22
52 22 31 0 53 -5 61 -15 11 -13 15 -12 37 5 30 24 66 26 83 5 14 -16 7 -21
-40 -27 -25 -4 -25 -4 3 -10 22 -4 34 1 57 23 33 34 59 36 91 10 19 -15 21
-22 12 -33 -7 -8 -10 -24 -6 -36 7 -28 -37 -47 -77 -34 -17 6 -33 6 -44 0 -10
-6 -34 -8 -53 -5 -41 7 -83 -7 -83 -27 0 -18 25 -27 38 -14 12 12 52 -7 52
-25 1 -7 5 -6 13 4 14 18 124 38 113 21 -8 -14 4 -43 15 -36 5 3 9 21 9 40 0
27 4 34 20 34 16 0 20 -7 20 -31 0 -17 4 -28 10 -24 6 3 10 15 10 25 0 10 6
20 13 23 15 5 40 -95 25 -104 -5 -3 -9 -9 -9 -13 3 -20 0 -26 -13 -26 -8 0
-17 8 -19 18 -4 13 -5 11 -6 -5 -1 -18 -7 -23 -26 -23 -19 0 -25 5 -26 23 0
22 0 22 -10 -2 -9 -22 -13 -23 -57 -17 -28 3 -53 14 -63 25 -9 11 -21 16 -28
12 -9 -6 -8 -11 4 -21 8 -7 15 -20 14 -29 0 -11 -3 -8 -9 7 -9 21 -11 22 -33
8 -18 -13 -47 -15 -144 -12 -116 4 -163 15 -163 36 0 6 -4 10 -10 10 -5 0 -10
-5 -10 -12 0 -20 -32 -48 -55 -48 -12 0 -34 9 -49 21 l-26 20 0 -20 c0 -12 -2
-21 -4 -21 -15 0 -36 14 -36 24 0 6 -7 23 -15 39 -13 25 -12 31 6 62 15 25 28
35 46 35 22 0 24 -3 18 -30 -5 -24 -3 -30 9 -30 9 0 24 9 33 20 22 26 41 25
70 -1 l22 -22 19 23 c17 21 19 21 55 6 21 -8 41 -25 46 -38 9 -22 9 -22 17 -4
5 13 3 21 -4 24 -15 5 -16 42 -2 42 6 0 10 7 10 16 0 10 7 14 23 12 12 -2 20
-7 19 -12 -2 -5 3 -13 12 -18 12 -7 13 -13 4 -33 -6 -14 -8 -28 -5 -32 12 -11
19 4 24 52 3 25 8 45 12 45 3 0 6 20 6 45 0 30 -4 45 -12 45 -10 0 -12 -11 -7
-39 l6 -40 -66 0 c-36 0 -70 -2 -76 -6 -5 -3 -18 -1 -29 4 -14 8 -20 7 -25 -4
-7 -19 -96 -21 -96 -2 0 6 -5 4 -11 -5 -12 -22 -48 -24 -55 -3 -4 8 -17 15
-30 15 -29 0 -31 13 -4 40 11 11 20 25 20 32 0 6 10 22 22 35 23 24 68 31 68
11z m877 6 c-3 -3 -12 -4 -19 -1 -8 3 -5 6 6 6 11 1 17 -2 13 -5z m573 -15 c0
-6 -4 -7 -10 -4 -5 3 -10 11 -10 16 0 6 5 7 10 4 6 -3 10 -11 10 -16z m-2158
-28 c-10 -6 -4 -10 18 -14 17 -4 29 -11 25 -17 -7 -11 -57 -12 -95 -1 -17 5
-29 2 -36 -8 -10 -13 -14 -13 -28 -2 -13 11 -14 17 -5 28 7 7 14 12 16 9 2 -2
16 0 31 4 37 11 91 12 74 1z m51 2 c-7 -2 -19 -2 -25 0 -7 3 -2 5 12 5 14 0
19 -2 13 -5z m185 0 c-15 -2 -42 -2 -60 0 -18 2 -6 4 27 4 33 0 48 -2 33 -4z
m152 -7 c19 -2 36 -9 38 -17 3 -8 11 -28 18 -44 8 -17 16 -40 18 -50 3 -11 7
-28 11 -37 12 -31 -9 -18 -33 20 -13 20 -19 38 -14 40 6 2 6 13 -1 32 -11 28
-43 50 -75 50 -9 0 -24 5 -32 10 -11 8 -9 9 10 5 14 -3 41 -7 60 -9z m1703
-16 c3 -11 2 -20 -3 -20 -4 0 -10 9 -13 20 -3 11 -2 20 3 20 4 0 10 -9 13 -20z
m-1869 -31 c8 -8 8 -13 -1 -16 -7 -2 -10 -10 -7 -17 7 -18 -22 -40 -42 -32
-10 4 -14 13 -11 26 5 21 -1 24 -72 35 -38 6 -42 9 -28 19 19 15 145 3 161
-15z m1386 16 c0 -8 -13 -21 -29 -30 -17 -8 -36 -24 -44 -36 -18 -25 -33 -8
-18 20 14 25 59 61 77 61 8 0 14 -7 14 -15z m-1249 -51 c11 -10 19 -26 19 -38
0 -15 -3 -17 -12 -8 -9 9 -14 7 -23 -5 -15 -21 -38 -7 -32 19 4 15 -1 20 -24
25 -29 6 -40 28 -16 36 18 6 67 -10 88 -29z m-450 -7 c-13 -13 -26 -3 -16 12
3 6 11 8 17 5 6 -4 6 -10 -1 -17z m654 13 c3 -6 3 -20 0 -31 -6 -19 -9 -20
-22 -6 -9 9 -13 23 -10 31 7 18 23 21 32 6z m1782 -62 c40 -73 83 -165 83
-177 -1 -3 -9 10 -20 30 -10 19 -34 46 -52 59 -60 41 -79 73 -72 119 4 23 10
41 13 41 4 0 25 -33 48 -72z m-2077 27 c0 -8 -4 -15 -10 -15 -5 0 -10 7 -10
15 0 8 5 15 10 15 6 0 10 -7 10 -15z m161 -46 c10 -13 20 -35 24 -49 6 -23 5
-23 -20 7 -15 19 -32 30 -40 26 -16 -6 -19 5 -9 32 8 20 23 15 45 -16z m969
17 c0 -3 -4 -8 -10 -11 -5 -3 -10 -1 -10 4 0 6 5 11 10 11 6 0 10 -2 10 -4z
m845 -26 c9 -16 13 -30 11 -30 -3 0 -12 14 -21 30 -9 17 -13 30 -11 30 3 0 12
-13 21 -30z m-1741 -62 c-4 -13 -2 -18 4 -14 9 6 21 -25 27 -69 2 -11 10 -38
19 -59 24 -58 11 -55 -21 4 -15 29 -34 64 -42 78 -8 14 -15 43 -17 64 -3 36
-2 38 17 28 14 -8 18 -17 13 -32z m1787 -60 c32 -46 21 -42 -25 8 -29 32 -41
54 -38 67 4 16 8 14 25 -15 11 -18 28 -45 38 -60z m-825 4 c-36 -37 -40 -23
-8 27 24 37 27 40 30 20 2 -13 -6 -32 -22 -47z m169 40 c0 -18 -20 -15 -23 4
-3 10 1 15 10 12 7 -3 13 -10 13 -16z m-2033 -74 c-23 -35 -42 -60 -42 -57 0
4 14 37 31 74 22 45 35 63 42 56 7 -7 -3 -30 -31 -73z m881 -10 c7 -24 -5 -23
-30 5 -24 26 -34 52 -25 62 8 8 49 -41 55 -67z m1065 61 c-2 -6 -8 -10 -13
-10 -5 0 -11 4 -13 10 -2 6 4 11 13 11 9 0 15 -5 13 -11z m-838 -29 c-8 -5
-19 -10 -25 -10 -5 0 -3 5 5 10 8 5 20 10 25 10 6 0 3 -5 -5 -10z m284 -1 c-2
-4 2 -9 8 -12 7 -2 1 -4 -14 -3 -31 1 -39 22 -9 22 11 0 18 -3 15 -7z m53 5
c-3 -3 -12 -4 -19 -1 -8 3 -5 6 6 6 11 1 17 -2 13 -5z m1048 -4 c3 -5 2 -10
-4 -10 -5 0 -13 5 -16 10 -3 6 -2 10 4 10 5 0 13 -4 16 -10z m-1258 -6 c-3 -3
-12 -4 -19 -1 -8 3 -5 6 6 6 11 1 17 -2 13 -5z m78 -13 c-8 -14 -25 -14 -25 0
0 5 5 7 10 4 6 -3 10 -1 10 6 0 7 3 10 6 6 3 -3 3 -10 -1 -16z m-1165 -36 c0
-3 -12 -11 -27 -19 -16 -8 -41 -26 -57 -41 -15 -14 -30 -24 -33 -22 -2 3 10
33 27 66 l31 62 29 -21 c17 -12 30 -23 30 -25z m2249 26 c11 -7 9 -10 -8 -16
-25 -8 -36 -2 -26 14 8 13 15 14 34 2z m-1446 -94 c20 -35 37 -66 37 -70 0
-16 -19 -5 -26 15 -3 12 -19 39 -35 61 -29 40 -35 57 -21 57 4 0 24 -29 45
-63z m1974 -7 c19 0 12 -23 -9 -26 -8 -1 -25 -5 -37 -9 -11 -3 -21 -2 -21 3 0
6 11 13 25 16 13 3 23 12 21 19 -1 6 -1 9 1 5 3 -5 11 -8 20 -8z m-1907 -35
c0 -5 -5 -3 -10 5 -5 8 -10 20 -10 25 0 6 5 3 10 -5 5 -8 10 -19 10 -25z
m-583 -35 c-13 -45 -27 -43 -27 4 0 37 6 47 24 40 10 -4 11 -14 3 -44z m602
-10 c11 -24 11 -24 -3 -6 -9 11 -16 24 -16 30 0 12 5 7 19 -24z m1781 18 c0
-10 -34 -164 -57 -256 -15 -62 -33 -91 -33 -54 0 11 7 39 15 63 11 31 45 223
45 254 0 1 7 2 15 2 8 0 15 -4 15 -9z m-2900 -29 c0 -16 -4 -28 -9 -25 -8 5
-3 56 5 56 2 0 4 -14 4 -31z m1776 4 c-10 -10 -19 5 -10 18 6 11 8 11 12 0 2
-7 1 -15 -2 -18z m1168 9 c2 -4 -4 -8 -15 -8 -10 0 -19 4 -19 8 0 4 6 8 14 8
8 0 17 -4 20 -8z m-3044 -42 c0 -5 -4 -10 -10 -10 -5 0 -10 5 -10 10 0 6 5 10
10 10 6 0 10 -4 10 -10z m1803 -15 c19 -13 52 -10 74 7 12 10 30 -9 19 -20 -4
-3 -80 -7 -169 -8 -89 -1 -190 -5 -224 -9 -37 -4 -63 -3 -63 2 0 5 26 10 58
11 95 3 182 14 182 23 0 21 90 16 123 -6z m-1843 -6 c0 -6 -4 -7 -10 -4 -5 3
-10 11 -10 16 0 6 5 7 10 4 6 -3 10 -11 10 -16z m80 11 c0 -5 -7 -10 -16 -10
-8 0 -12 5 -9 10 3 6 10 10 16 10 5 0 9 -4 9 -10z m137 -12 c-3 -8 -6 -5 -6 6
-1 11 2 17 5 13 3 -3 4 -12 1 -19z m1404 11 c-26 -10 -80 -9 -87 3 -3 4 21 8
53 7 47 0 53 -2 34 -10z m-229 -11 c3 -9 12 -9 36 1 18 8 35 11 39 7 3 -3 -1
-6 -10 -6 -9 0 -17 -4 -17 -10 0 -5 -11 -10 -24 -10 -14 0 -28 -5 -32 -11 -4
-8 -29 -10 -70 -6 -34 2 -66 1 -71 -4 -5 -5 -9 0 -10 11 -1 15 4 20 22 20 13
0 27 -5 30 -10 4 -7 13 -6 26 1 12 6 23 8 26 5 3 -3 12 1 20 9 18 18 30 19 35
3z m-1222 -35 c0 -8 5 -11 10 -8 6 4 10 -5 10 -19 0 -29 -18 -35 -26 -8 -3 9
-10 25 -15 34 -12 24 -11 28 6 22 8 -4 15 -13 15 -21z m494 -15 c6 10 11 9 21
-5 7 -10 11 -21 9 -25 -3 -5 6 -12 20 -18 14 -5 26 -15 26 -22 0 -7 11 -26 25
-42 14 -16 25 -34 25 -40 0 -6 10 -32 23 -58 24 -52 36 -54 89 -17 l27 19 -6
-38 c-12 -79 -27 -96 -57 -67 -8 8 -19 15 -24 15 -5 0 -15 -7 -22 -15 -7 -8
-29 -15 -49 -15 -20 0 -41 -4 -46 -9 -6 -5 -28 -11 -50 -13 -57 -4 -65 17 -59
156 6 137 25 257 34 211 4 -21 8 -26 14 -17z m-446 -9 c-3 -20 -5 -19 -9 9 -3
20 -2 29 4 23 5 -5 7 -19 5 -32z m-68 0 c0 -5 -4 -9 -10 -9 -5 0 -10 7 -10 16
0 8 5 12 10 9 6 -3 10 -10 10 -16z m1 -192 c11 -60 24 -119 29 -133 10 -24 4
-54 -10 -54 -23 0 -38 72 -43 210 -3 80 -3 132 -1 115 3 -16 14 -79 25 -138z
m54 106 c4 -18 3 -33 -2 -33 -12 0 -34 61 -27 72 9 14 21 -3 29 -39z m2086
-113 c4 -19 9 -55 9 -79 l0 -44 -26 24 c-27 24 -81 132 -81 159 0 9 -2 29 -6
45 -3 17 -4 24 -1 18 4 -9 11 -10 24 -3 13 7 20 6 23 -3 3 -6 6 2 7 18 1 24 6
17 22 -35 11 -36 24 -81 29 -100z m864 150 c-3 -5 -10 -10 -16 -10 -5 0 -9 5
-9 10 0 6 7 10 16 10 8 0 12 -4 9 -10z m35 -67 c0 -12 7 -29 16 -38 15 -15 16
-24 5 -86 -18 -96 -32 -98 -29 -2 2 43 -1 101 -5 128 -6 36 -5 46 2 35 6 -8
11 -25 11 -37z m-2946 -33 c4 -29 3 -38 -2 -25 -12 28 -23 104 -13 85 5 -8 12
-35 15 -60z m-11 -42 c3 -13 9 -33 12 -45 4 -14 3 -23 -3 -23 -5 0 -13 12 -16
28 -4 15 -9 35 -12 45 -3 9 -1 17 4 17 5 0 12 -10 15 -22z m2687 4 c0 -26
-139 -64 -315 -86 -16 -2 -45 -7 -62 -11 -20 -5 -33 -4 -33 2 0 12 102 36 145
35 38 -1 243 47 251 59 7 11 14 12 14 1z m-822 -61 c18 -33 39 -80 46 -105
l14 -46 -36 31 c-21 18 -40 41 -44 52 -12 28 -26 127 -19 127 4 0 21 -27 39
-59z m-1811 -48 c-6 -5 -37 73 -36 90 0 6 9 -10 20 -37 11 -27 18 -50 16 -53z
m2727 35 c-22 -24 -53 -62 -69 -85 -17 -23 -36 -45 -43 -47 -6 -3 9 22 35 56
56 71 98 118 109 118 3 0 -11 -19 -32 -42z m-128 -13 c-9 -14 -21 -25 -27 -25
-5 0 0 13 12 30 27 35 39 32 15 -5z m-3311 -35 c7 -5 14 -7 17 -4 7 6 80 -12
115 -28 13 -6 65 -9 126 -6 l104 5 17 -91 c22 -117 64 -257 81 -271 8 -5 32
-52 53 -103 50 -117 99 -199 135 -225 18 -14 23 -23 15 -28 -8 -5 1 -22 28
-54 21 -26 60 -74 87 -108 56 -73 130 -150 172 -180 20 -14 11 -1 -25 39 -61
66 -111 151 -114 192 -2 24 2 27 31 29 27 3 52 -11 143 -76 158 -113 380 -225
396 -199 10 15 26 -16 18 -36 -5 -14 -9 -14 -42 0 -21 9 -71 31 -112 49 -45
19 -120 66 -189 118 -77 58 -118 84 -125 77 -7 -7 -6 -14 2 -22 7 -7 12 -19
12 -27 -1 -11 -9 -7 -26 13 -15 17 -23 35 -19 44 4 12 1 11 -15 -3 -19 -17
-20 -21 -6 -31 9 -6 16 -18 16 -26 0 -9 9 -18 21 -21 12 -3 18 -10 15 -15 -3
-6 7 -21 23 -34 16 -14 34 -35 41 -49 24 -45 75 -101 123 -136 50 -37 60 -60
10 -25 -26 18 -129 86 -162 106 -10 7 -12 5 -6 -4 6 -10 4 -12 -7 -7 -9 3 -20
1 -25 -4 -19 -19 -188 -32 -275 -20 -71 10 -86 15 -105 39 -12 15 -22 33 -23
40 0 26 -62 82 -92 82 -30 0 -32 -5 -29 -85 2 -59 -23 -73 -146 -80 -54 -4
-120 -13 -146 -21 -93 -29 -140 -33 -252 -23 -193 18 -213 45 -245 334 -7 59
-20 117 -31 141 -19 39 -24 42 -72 49 -128 18 -322 30 -432 25 -122 -5 -245 6
-245 22 0 5 -4 7 -9 4 -4 -3 -54 6 -109 19 -167 40 -411 50 -657 25 -60 -6
-117 -11 -125 -12 -61 0 -87 7 -107 28 -13 15 -34 24 -51 24 -15 0 -32 4 -38
9 -17 16 -179 39 -389 57 -33 2 -85 9 -115 15 -30 5 -136 11 -235 13 -173 2
-262 15 -317 46 -16 9 -116 26 -131 22 -4 -1 -7 2 -7 7 0 5 -23 11 -50 15 -72
10 -77 13 -72 45 5 33 6 33 192 52 57 6 107 14 110 18 6 10 72 33 77 27 3 -2
16 2 30 9 14 7 32 11 39 8 8 -3 14 0 14 6 0 7 18 9 53 6 28 -2 81 -7 117 -10
36 -3 80 -11 98 -17 27 -10 35 -10 42 2 7 11 11 11 23 1 10 -7 25 -9 44 -4 15
4 30 8 33 8 3 1 12 4 20 8 8 3 75 8 148 10 82 2 137 8 145 16 6 6 26 11 44 11
24 0 42 8 62 29 15 16 42 32 60 36 24 5 33 13 37 33 7 36 65 64 114 56 41 -7
65 -24 33 -24 -11 0 -26 -7 -33 -15 -11 -13 -8 -15 16 -16 43 -2 46 -3 79 -20
17 -9 50 -21 75 -27 25 -6 59 -14 75 -18 43 -10 348 -5 425 8 36 6 71 15 79
21 15 13 12 12 104 29 63 11 91 28 47 28 -11 0 -20 5 -20 11 0 5 4 8 9 4 6 -3
31 0 57 6 37 10 48 9 54 -1 5 -7 6 -18 4 -25 -5 -12 140 -40 157 -29 5 3 8 0
7 -7 -2 -6 3 -14 10 -16 6 -3 12 0 12 7 0 7 6 8 19 0 24 -13 101 -13 172 -1
30 6 106 15 169 22 63 6 140 19 170 28 30 9 67 16 82 16 15 -1 26 2 26 5 -2
21 6 29 30 28 16 -1 37 4 48 11 22 13 150 7 169 -9z m455 -57 c0 -12 -4 -24
-9 -27 -11 -7 -32 84 -23 98 7 12 31 -41 32 -71z m2624 43 c-8 -21 -124 -38
-124 -18 0 10 64 29 102 31 20 1 26 -3 22 -13z m-1584 -36 c-7 -17 -18 -29
-24 -27 -7 3 -25 -17 -40 -44 -30 -54 -41 -64 -25 -22 21 56 62 122 78 126 24
5 25 1 11 -33z m1194 -39 c-5 -5 -43 42 -44 54 0 6 11 -3 24 -20 13 -16 22
-32 20 -34z m741 41 c7 -18 -11 -32 -43 -32 -23 0 -23 7 -1 36 12 16 37 13 44
-4z m86 -62 c-9 -23 -10 -23 -10 12 -1 20 2 45 7 55 6 14 8 12 10 -12 2 -17
-1 -42 -7 -55z m-806 -10 c3 -5 19 -10 36 -10 16 0 29 -5 29 -11 0 -6 -7 -8
-16 -5 -8 3 -23 2 -33 -4 -15 -7 -20 -4 -29 15 -11 24 0 36 13 15z m-1347 -42
c-10 -20 -22 -27 -53 -31 -51 -7 -59 0 -10 9 22 4 42 16 52 31 20 30 27 25 11
-9z m1547 22 c4 -6 -8 -10 -29 -10 -20 0 -36 5 -36 10 0 6 13 10 29 10 17 0
33 -4 36 -10z m65 1 c0 -5 10 -11 22 -14 34 -9 15 -19 -48 -24 -40 -4 -54 -2
-50 6 4 6 22 11 39 12 18 0 26 3 19 6 -6 2 -10 9 -6 14 7 12 24 12 24 0z m110
-5 c8 -2 27 0 43 5 15 4 27 4 27 -1 0 -14 -14 -19 -75 -25 -47 -4 -55 -2 -46
8 6 8 7 18 3 22 -4 5 2 5 13 1 11 -5 27 -9 35 -10z m-310 -35 c-16 -5 -24 -13
-22 -24 2 -9 -2 -17 -8 -17 -5 0 -10 7 -10 15 0 8 -6 15 -12 15 -9 0 -8 4 2
10 8 5 29 9 45 9 29 -1 29 -1 5 -8z m90 -1 c-20 -13 -60 -13 -60 0 0 6 17 10
38 10 27 0 33 -3 22 -10z m657 -22 c-3 -7 -5 -2 -5 12 0 14 2 19 5 13 2 -7 2
-19 0 -25z m62 -85 c-41 -113 -103 -235 -129 -250 -18 -12 -19 -11 -10 11 5
14 11 42 13 63 5 41 49 137 68 149 11 6 9 -5 -9 -56 -3 -8 -2 -13 1 -10 3 3
23 48 43 100 42 111 47 121 52 98 2 -10 -11 -57 -29 -105z m-279 81 c0 -8 -4
-12 -10 -9 -5 3 -10 10 -10 16 0 5 5 9 10 9 6 0 10 -7 10 -16z m-241 2 c-12
-10 -79 -16 -79 -6 0 5 19 10 42 10 23 0 39 -2 37 -4z m-1892 -28 c17 -9 28
-7 48 6 18 12 42 16 79 14 50 -3 53 -4 38 -19 -10 -10 -21 -13 -26 -8 -6 5
-21 9 -35 9 -21 0 -23 -2 -11 -10 11 -7 6 -10 -20 -10 -19 0 -66 -3 -105 -6
-62 -5 -68 -4 -52 9 9 8 17 19 17 25 0 11 33 6 67 -10z m33 12 c0 -5 -4 -10
-10 -10 -5 0 -10 5 -10 10 0 6 5 10 10 10 6 0 10 -4 10 -10z m-360 -4 c0 -11
-19 -15 -25 -6 -3 5 1 10 9 10 9 0 16 -2 16 -4z m-301 -182 c12 8 59 -63 67
-102 7 -35 27 -56 24 -26 -4 35 0 41 38 70 32 24 35 25 17 4 -17 -20 -18 -23
-2 -17 9 4 17 4 17 1 0 -7 -33 -67 -40 -74 -20 -19 -39 -62 -34 -77 3 -10 -5
1 -18 24 -13 23 -44 79 -70 125 -54 95 -88 179 -87 211 0 13 16 -11 40 -61 21
-46 43 -81 48 -78z m2090 119 c-36 -58 -104 -118 -151 -133 -31 -9 -157 -14
-438 -17 l-395 -4 -3 -22 c-4 -41 12 -51 90 -53 66 -2 73 -4 76 -23 3 -18 -2
-21 -38 -21 -36 0 -41 -2 -35 -17 5 -10 10 -33 13 -50 l4 -33 66 0 c47 0 71
-5 84 -16 15 -14 24 -15 60 -5 51 14 352 31 356 20 5 -12 42 3 42 17 0 15 1
15 40 19 16 2 45 24 79 61 50 54 53 56 31 19 -68 -117 -114 -187 -129 -195
-60 -31 -505 -47 -623 -21 -48 10 -62 19 -95 58 -21 26 -45 57 -53 69 -8 12
-25 36 -38 53 -30 39 -17 40 25 1 39 -37 46 -38 31 -5 -6 14 -14 25 -17 25 -3
0 -7 10 -7 23 -1 12 -5 39 -9 60 -7 34 -6 37 15 37 28 0 21 24 -9 28 -15 2
-21 0 -17 -7 4 -6 2 -11 -4 -11 -34 0 -140 82 -162 124 -6 12 12 0 38 -25 88
-84 61 -80 521 -75 435 5 501 8 542 26 14 7 49 38 76 70 28 33 51 59 53 60 2
0 -7 -17 -19 -37z m711 -22 c12 -33 30 -67 41 -77 10 -9 16 -21 12 -27 -3 -5
-1 -7 5 -3 6 3 13 2 17 -4 3 -5 1 -10 -5 -10 -7 0 -10 -7 -7 -15 4 -8 2 -17
-2 -20 -14 -8 -91 167 -91 207 0 20 9 4 30 -51z m-2540 29 c0 -5 -2 -10 -4
-10 -3 0 -8 5 -11 10 -3 6 -1 10 4 10 6 0 11 -4 11 -10z m2505 -48 c0 -33 -19
-31 -22 1 -1 18 2 27 10 24 7 -2 12 -13 12 -25z m-2507 -143 c0 -51 5 -95 9
-98 4 -3 8 -10 8 -16 2 -22 17 -131 21 -146 5 -19 -40 -39 -87 -39 -36 0 -36
5 -1 71 28 54 29 69 31 282 1 87 17 40 19 -54z m2335 94 c-13 -2 -33 -2 -45 0
-13 2 -3 4 22 4 25 0 35 -2 23 -4z m177 -78 c0 -50 4 -85 10 -85 6 0 10 -17
10 -38 0 -21 7 -47 15 -58 22 -29 18 -44 -12 -44 -42 0 -56 14 -59 57 -13 154
-23 188 -58 197 -28 8 -241 7 -288 0 l-38 -7 0 -105 0 -105 128 7 c70 4 141 9
157 12 27 5 32 1 46 -33 20 -45 16 -56 -44 -109 -83 -73 -127 -105 -137 -99
-5 3 -31 -7 -57 -22 -26 -15 -63 -29 -81 -30 -19 -1 -39 -7 -46 -13 -7 -5 -35
-22 -62 -36 -56 -30 -100 -28 -160 8 -25 15 -35 17 -29 8 4 -8 -31 26 -79 75
-49 50 -92 98 -98 108 -12 24 3 43 47 57 18 6 36 18 39 27 4 9 14 13 26 10 11
-3 20 -2 20 1 0 4 22 5 49 4 42 -3 51 -1 61 18 16 30 6 50 -27 51 -25 2 -25 2
-5 6 33 6 55 -15 48 -47 l-5 -26 66 8 c36 4 68 9 70 12 2 2 7 51 10 109 5 82
9 104 19 100 8 -3 17 2 20 11 9 24 -3 32 -23 14 -10 -9 -49 -19 -88 -23 -83
-8 -96 -14 -154 -69 -40 -37 -42 -38 -23 -9 28 39 110 109 146 123 37 14 89
13 104 -2 8 -8 15 -9 20 -3 4 6 82 10 195 10 147 0 187 -3 187 -13 0 -7 4 -11
9 -8 9 6 31 -59 31 -93 0 -12 4 -19 10 -16 6 3 10 37 10 76 0 39 4 69 10 69 6
0 10 -35 10 -85z m-1954 34 c10 -12 38 -32 62 -46 58 -34 48 -39 -19 -9 -39
18 -81 26 -151 31 -54 4 -98 11 -98 16 0 5 8 10 18 10 9 1 4 5 -13 9 -20 5 6
8 76 9 96 1 108 -1 125 -20z m1184 -3 c0 -7 -8 -16 -17 -20 -10 -3 -24 -9 -30
-12 -7 -3 -13 -1 -13 5 0 8 29 28 58 40 1 1 2 -5 2 -13z m-1404 -13 c-7 -7
-77 -5 -85 3 -2 2 17 4 44 4 27 0 45 -3 41 -7z m-256 -17 c0 -3 -4 -8 -10 -11
-5 -3 -10 -1 -10 4 0 6 5 11 10 11 6 0 10 -2 10 -4z m1668 -21 c-6 -14 -13
-23 -15 -21 -5 5 15 46 22 46 3 0 -1 -11 -7 -25z m97 -24 c-3 -6 -11 -11 -17
-11 -6 0 -6 6 2 15 14 17 26 13 15 -4z m44 -2 c-7 -14 -14 -18 -21 -11 -13 13
-2 32 18 32 12 0 13 -4 3 -21z m-269 -28 c-1 -19 -30 -36 -64 -38 -48 -3 -54
-8 -38 -33 7 -12 8 -20 2 -20 -5 0 -16 14 -25 30 -10 19 -23 30 -37 30 -17 0
-19 -3 -10 -12 7 -7 12 -18 12 -24 0 -18 -29 -44 -48 -44 -11 1 -8 6 11 16 51
28 24 64 -49 64 -37 0 -74 -22 -74 -45 0 -14 42 -35 73 -36 17 -1 18 -2 4 -6
-25 -7 -84 15 -91 34 -4 9 1 24 10 34 16 18 15 19 -37 19 -42 -1 -50 -3 -36
-11 31 -18 16 -79 -21 -79 -9 0 -7 6 8 18 27 22 18 50 -19 58 -82 17 -79 18
-83 -39 -1 -21 -6 -37 -11 -37 -12 0 1 84 13 88 6 2 10 12 10 23 0 18 8 19
105 19 87 0 105 -3 105 -15 0 -11 11 -15 39 -15 22 0 46 -3 55 -6 11 -4 16 0
16 14 0 19 7 21 68 24 72 3 112 -1 112 -11z m331 -36 c-8 -30 -8 -29 -12 12
-4 34 -2 40 8 30 9 -8 10 -22 4 -42z m-1262 25 c-8 -6 4 -24 40 -60 38 -38 47
-51 31 -47 -11 3 -20 2 -18 -1 2 -4 10 -19 17 -34 8 -15 30 -35 50 -44 20 -9
46 -24 58 -31 21 -14 22 -16 5 -41 -9 -15 -37 -45 -61 -67 -24 -22 -76 -70
-115 -106 -89 -84 -126 -97 -199 -73 -84 27 -126 52 -226 132 -54 43 -96 71
-99 64 -7 -21 -26 -13 -70 30 -36 34 -42 46 -37 67 14 59 20 60 268 62 220 2
232 4 228 31 0 4 5 5 12 2 10 -3 12 4 9 29 -3 28 0 35 25 45 27 12 28 11 6 -4
-13 -9 -23 -27 -23 -39 0 -27 24 -50 41 -39 7 4 17 0 24 -10 11 -14 17 -15 39
-5 17 8 25 18 21 27 -3 7 -5 18 -5 24 0 6 -7 7 -16 4 -13 -5 -14 -4 -6 7 8 10
7 20 -3 41 -20 37 -19 57 1 49 12 -4 13 -8 3 -13z m-114 -10 c-3 -5 -10 -29
-14 -52 -8 -41 -9 -41 -10 -10 -1 31 13 72 25 72 3 0 2 -4 -1 -10z m1339 -36
c15 -14 26 -27 23 -30 -3 -3 -20 8 -39 25 -18 17 -28 30 -23 30 6 0 23 -11 39
-25z m-144 -3 c0 -5 -16 -21 -35 -35 -43 -33 -46 -24 -4 15 33 31 39 34 39 20z
m-200 -11 c-8 -5 -19 -10 -25 -10 -5 0 -3 5 5 10 8 5 20 10 25 10 6 0 3 -5 -5
-10z m-295 -40 c3 -5 1 -10 -4 -10 -6 0 -11 5 -11 10 0 6 2 10 4 10 3 0 8 -4
11 -10z m-1365 -51 c0 -6 -4 -7 -10 -4 -5 3 -10 11 -10 16 0 6 5 7 10 4 6 -3
10 -11 10 -16z m925 -19 c10 -11 16 -20 13 -20 -3 0 -13 9 -23 20 -10 11 -16
20 -13 20 3 0 13 -9 23 -20z m1746 1 c-13 -10 -32 -16 -42 -14 -30 8 -22 21
14 26 17 2 37 4 42 5 6 1 -1 -7 -14 -17z m-4397 -33 c6 -4 23 -8 38 -8 21 0
28 -6 33 -30 4 -16 12 -28 18 -27 15 3 22 -42 8 -56 -6 -6 -11 -18 -11 -27 0
-22 -26 -75 -45 -90 -8 -7 -15 -18 -15 -25 0 -7 -7 -15 -15 -19 -8 -3 -15 -12
-15 -20 0 -18 -60 -37 -90 -29 -11 3 -20 0 -20 -6 0 -6 -7 -11 -15 -11 -8 0
-15 5 -15 10 0 6 4 10 10 10 5 0 -3 12 -18 27 -15 15 -30 27 -35 25 -4 -1 -12
9 -17 22 -5 13 -13 27 -19 30 -17 11 -10 99 10 121 9 11 19 31 21 45 2 14 9
24 16 23 6 -2 12 3 12 11 0 8 15 17 35 20 19 4 35 11 35 16 0 12 74 17 79 5 2
-5 9 -13 15 -17z m3391 -28 c-3 -5 -11 -10 -16 -10 -6 0 -7 5 -4 10 3 6 11 10
16 10 6 0 7 -4 4 -10z m901 -15 c4 -17 -4 -45 -24 -87 -40 -85 -65 -112 -96
-104 -14 3 -28 2 -31 -4 -3 -5 -12 -10 -18 -10 -17 1 24 30 42 30 19 0 51 29
51 47 0 11 -4 11 -20 3 -12 -6 -30 -8 -41 -5 -11 4 -26 1 -34 -5 -8 -6 -19 -9
-24 -5 -11 6 -65 -18 -92 -42 -9 -7 -26 -15 -37 -18 -29 -5 -63 -25 -58 -33 2
-4 -7 -8 -19 -8 -13 -1 -55 -23 -92 -48 -37 -25 -69 -42 -71 -36 -6 18 19 50
39 50 40 0 256 131 413 250 75 56 102 62 112 25z m-2523 -6 c22 0 22 0 -1 -11
-19 -9 -26 -8 -40 7 -16 17 -16 17 1 11 10 -3 28 -6 40 -7z m1594 -5 c-3 -3
-12 -4 -19 -1 -8 3 -5 6 6 6 11 1 17 -2 13 -5z m-571 -19 c5 -12 29 -14 127
-14 75 1 114 4 102 9 -16 7 -14 9 13 9 20 1 31 -3 27 -9 -4 -6 5 -10 20 -10
15 0 24 4 20 10 -4 6 6 10 22 10 22 0 25 -2 13 -11 -11 -7 6 -8 55 -3 39 4 72
11 73 15 2 5 11 9 20 9 15 0 15 -2 2 -10 -10 -7 6 -8 51 -4 77 8 92 1 164 -67
28 -26 82 -74 121 -107 64 -53 69 -60 53 -70 -10 -7 -32 -12 -49 -12 -16 0
-49 -6 -72 -14 -77 -26 -185 -40 -194 -25 -3 5 -27 9 -53 9 -26 0 -61 4 -77 9
-16 5 -50 12 -77 15 -38 5 -51 2 -67 -14 -10 -10 -20 -14 -22 -9 -3 10 -120
16 -188 10 -19 -2 -62 4 -95 13 -74 20 -115 14 -157 -24 -18 -17 -40 -33 -50
-36 -21 -6 -128 12 -141 25 -5 5 14 29 44 57 144 132 254 238 257 245 6 15 52
10 58 -6z m1322 -154 c-26 -34 -40 -40 -31 -13 10 27 24 42 40 42 11 0 8 -8
-9 -29z m-2055 -27 c8 -8 -3 -34 -15 -34 -6 0 -6 6 1 14 9 11 9 15 -1 19 -7 3
-8 6 -2 6 6 1 13 -2 17 -5z m1897 -14 c0 -5 -5 -10 -11 -10 -5 0 -7 5 -4 10 3
6 8 10 11 10 2 0 4 -4 4 -10z m-1940 -26 c0 -14 -3 -14 -15 -4 -8 7 -15 14
-15 16 0 2 7 4 15 4 8 0 15 -7 15 -16z m1740 -6 c0 -13 -23 -5 -28 10 -2 7 2
10 12 6 9 -3 16 -11 16 -16z m298 -17 c3 -10 0 -12 -11 -8 -9 3 -18 1 -21 -6
-2 -7 -5 -2 -5 11 -1 17 4 23 16 20 9 -2 18 -9 21 -17z m32 -5 c0 -3 -4 -8
-10 -11 -5 -3 -10 -1 -10 4 0 6 5 11 10 11 6 0 10 -2 10 -4z m-220 -10 c0 -2
-7 -7 -16 -10 -8 -3 -12 -2 -9 4 6 10 25 14 25 6z m120 -10 c0 -11 -19 -15
-25 -6 -3 5 1 10 9 10 9 0 16 -2 16 -4z m1738 -12 c25 -7 30 -24 7 -24 -8 0
-15 -7 -15 -15 0 -8 -7 -15 -15 -15 -8 0 -14 -5 -12 -12 2 -13 -55 -26 -115
-27 -32 -1 -38 2 -38 21 0 12 3 18 6 15 12 -11 44 13 44 33 0 11 7 20 15 20 9
0 15 -9 15 -25 0 -18 5 -25 20 -25 11 0 20 7 20 15 0 8 -4 15 -10 15 -17 0
-11 18 8 23 26 7 45 7 70 1z m-2528 -14 c0 -5 -5 -10 -11 -10 -5 0 -7 5 -4 10
3 6 8 10 11 10 2 0 4 -4 4 -10z m680 0 c0 -5 -4 -10 -10 -10 -5 0 -10 5 -10
10 0 6 5 10 10 10 6 0 10 -4 10 -10z m64 -25 c-5 -19 -3 -25 7 -23 8 2 14 -4
14 -12 0 -8 -10 -16 -22 -18 -18 -3 -23 2 -23 17 0 26 -17 28 -24 4 -3 -10
-16 -18 -29 -18 -20 0 -21 3 -13 21 6 12 16 19 23 17 7 -3 13 -1 13 4 0 9 35
31 53 32 4 1 5 -10 1 -24z m76 20 c0 -12 -40 -48 -46 -42 -4 4 1 16 11 27 17
19 35 26 35 15z m60 1 c0 -3 -4 -8 -10 -11 -5 -3 -10 -1 -10 4 0 6 5 11 10 11
6 0 10 -2 10 -4z m160 -17 c0 -5 -4 -9 -10 -9 -5 0 -10 7 -10 16 0 8 5 12 10
9 6 -3 10 -10 10 -16z m-2020 -9 c0 -5 -2 -10 -4 -10 -3 0 -8 5 -11 10 -3 6
-1 10 4 10 6 0 11 -4 11 -10z m727 -14 c-4 -13 -57 -21 -57 -9 0 5 5 14 11 20
13 13 51 5 46 -11z m123 14 c0 -5 -2 -10 -4 -10 -3 0 -8 5 -11 10 -3 6 -1 10
4 10 6 0 11 -4 11 -10z m1123 -4 c9 -7 17 -18 17 -23 0 -9 24 -21 52 -27 20
-4 18 -19 -7 -52 l-28 -37 33 7 c32 6 33 5 15 -8 -11 -9 -26 -16 -32 -16 -12
0 -15 6 -17 40 -2 23 -55 20 -62 -3 -5 -17 -18 -16 -19 1 -2 28 -18 62 -29 62
-7 0 -23 8 -35 19 -18 15 -19 20 -7 30 11 9 18 6 35 -15 22 -28 64 -54 87 -54
20 0 18 6 -13 40 -14 17 -35 30 -45 30 -10 0 -18 5 -18 10 0 14 52 12 73 -4z
m-1063 -6 c0 -5 -5 -10 -11 -10 -5 0 -7 5 -4 10 3 6 8 10 11 10 2 0 4 -4 4
-10z m-370 -10 c0 -5 -4 -10 -10 -10 -5 0 -10 5 -10 10 0 6 5 10 10 10 6 0 10
-4 10 -10z m910 6 c0 -2 -8 -10 -17 -17 -16 -13 -17 -12 -4 4 13 16 21 21 21
13z m369 -17 c-16 -10 -23 -4 -14 10 3 6 11 8 17 5 6 -4 5 -9 -3 -15z m-714
-9 c-3 -5 -17 -10 -30 -10 -13 0 -27 5 -30 10 -4 6 8 10 30 10 22 0 34 -4 30
-10z m-764 -10 c19 -11 27 -40 10 -40 -6 0 -23 11 -38 25 -23 20 -25 24 -10
25 10 0 27 -5 38 -10z m1790 -6 c20 -10 29 -20 25 -30 -3 -9 -6 -24 -6 -34 0
-11 -10 -24 -21 -31 -15 -8 -19 -8 -15 0 4 6 2 11 -5 11 -8 0 -8 4 1 15 11 13
8 15 -15 15 -22 0 -25 3 -16 14 9 11 9 15 -1 18 -10 4 -10 8 1 21 16 21 15 21
52 1z m-773 -18 c2 -11 -8 -21 -33 -32 -60 -25 -77 3 -22 36 36 22 50 21 55
-4z m-1350 2 c7 -7 12 -16 12 -20 0 -13 -37 -9 -49 5 -20 24 14 38 37 15z
m1229 -16 c4 -27 -19 -39 -48 -26 -20 9 -20 9 1 32 25 27 42 25 47 -6z m402
14 c10 -12 8 -17 -9 -26 -26 -14 -34 -8 -25 19 7 25 18 27 34 7z m-219 -36
c-20 -28 -40 -39 -40 -23 0 10 42 53 52 53 5 0 0 -13 -12 -30z m410 -2 c0 -6
-9 -8 -20 -5 -11 3 -20 0 -21 -6 0 -9 -2 -8 -6 0 -7 19 19 43 35 31 6 -6 12
-15 12 -20z m447 21 c6 -6 9 -18 6 -25 -3 -8 0 -14 7 -14 6 0 10 -8 8 -17 -2
-10 3 -23 12 -30 13 -10 11 -12 -13 -19 -21 -5 -25 -9 -16 -15 7 -4 10 -12 5
-16 -4 -4 -14 1 -22 12 -8 11 -20 21 -27 21 -7 1 -16 2 -21 3 -6 0 -1 7 10 15
11 9 23 11 30 5 7 -6 10 4 10 34 -1 23 -5 45 -11 49 -7 5 -6 8 1 8 5 0 15 -5
21 -11z m-4244 -19 c6 -23 -10 -37 -24 -23 -10 10 -2 43 11 43 4 0 10 -9 13
-20z m3077 10 c0 -12 -35 -31 -44 -23 -8 9 14 33 30 33 8 0 14 -4 14 -10z
m-1480 -20 c0 -5 -9 -10 -20 -10 -12 0 -32 -8 -46 -17 -25 -16 -26 -16 -22 3
2 13 14 21 38 25 19 4 38 7 43 8 4 0 7 -3 7 -9z m1150 -11 c0 -6 -4 -7 -10 -4
-5 3 -10 11 -10 16 0 6 5 7 10 4 6 -3 10 -11 10 -16z m965 11 c-3 -5 -10 -10
-16 -10 -5 0 -9 5 -9 10 0 6 7 10 16 10 8 0 12 -4 9 -10z m495 -11 c0 -18 -2
-19 -15 -9 -15 12 -12 30 6 30 5 0 9 -10 9 -21z m-400 -21 c0 -13 -23 -5 -28
10 -2 7 2 10 12 6 9 -3 16 -11 16 -16z m-3730 -8 c0 -5 -4 -10 -10 -10 -5 0
-10 5 -10 10 0 6 5 10 10 10 6 0 10 -4 10 -10z m4083 -4 c3 -7 0 -19 -6 -26
-9 -10 -9 -14 1 -17 23 -9 12 -23 -17 -23 -17 0 -33 -4 -36 -10 -10 -16 -25
-12 -19 5 4 9 0 15 -10 15 -20 0 -21 14 -1 30 12 10 15 10 15 -4 0 -21 19 -21
27 2 14 39 37 53 46 28z m-2650 -26 c-3 -11 -10 -20 -16 -20 -8 0 -7 -4 1 -12
8 -8 8 -17 1 -30 -6 -10 -7 -28 -4 -38 4 -12 2 -20 -4 -20 -6 0 -11 14 -11 32
0 17 -7 39 -16 49 -15 17 -15 19 10 30 14 7 26 16 26 21 0 4 4 8 9 8 5 0 7 -9
4 -20z m2377 10 c0 -5 -7 -10 -16 -10 -8 0 -12 5 -9 10 3 6 10 10 16 10 5 0 9
-4 9 -10z m80 2 c0 -4 -9 -13 -20 -19 -16 -11 -21 -10 -30 7 -10 18 -8 20 20
20 16 0 30 -3 30 -8z m-2136 -23 c-3 -5 -10 -7 -15 -3 -5 3 -7 10 -3 15 3 5
10 7 15 3 5 -3 7 -10 3 -15z m-437 -31 c-8 -5 -4 -13 12 -27 19 -17 22 -26 17
-56 -4 -19 -11 -35 -15 -35 -4 0 -22 23 -40 51 -17 28 -40 53 -51 56 -28 8
-25 22 8 29 15 3 32 7 37 8 18 5 46 -17 32 -26z m2633 -10 c0 -11 -18 -10 -25
2 -3 5 -12 7 -20 3 -15 -5 -21 17 -9 30 7 7 53 -24 54 -35z m-180 -11 c0 -18
4 -27 8 -21 12 18 61 9 89 -17 21 -20 25 -21 19 -5 -4 13 -2 17 9 13 8 -4 17
-2 20 3 4 6 14 10 23 10 12 0 13 -3 4 -12 -7 -7 -12 -20 -12 -30 0 -19 -41
-29 -97 -25 -32 2 -48 11 -48 28 0 5 -4 8 -10 7 -5 -2 -9 -8 -9 -14 1 -6 -12
-11 -29 -12 l-31 -1 29 23 c19 15 24 25 17 30 -15 9 -16 46 -1 46 5 0 7 5 3
12 -4 7 -3 8 4 4 7 -4 12 -22 12 -39z m380 28 c14 -17 40 -20 40 -5 0 6 7 10
15 10 9 0 15 -7 13 -17 -2 -9 7 -22 20 -28 l22 -12 -24 -27 -23 -28 -8 24 c-4
12 -8 26 -10 31 -1 4 -3 12 -4 17 0 6 -12 8 -27 4 -26 -7 -44 7 -44 34 0 16
15 15 30 -3z m-2526 -49 c-3 -9 -10 -14 -15 -11 -4 3 -6 12 -2 20 3 8 0 15 -6
15 -6 0 -8 7 -4 15 5 14 8 13 19 -4 8 -11 11 -26 8 -35z m2646 45 c0 -11 -31
-24 -39 -16 -3 3 1 10 9 15 19 12 30 12 30 1z m-3212 -32 c38 -13 65 -52 57
-80 -7 -21 -7 -21 -31 2 l-23 22 -54 -41 -55 -41 9 37 c5 20 9 39 9 42 0 12
41 70 48 70 5 0 23 -5 40 -11z m850 -14 c14 -29 -2 -34 -18 -6 -12 24 -13 31
-2 31 5 0 14 -11 20 -25z m2459 3 c33 -31 29 -43 -16 -46 -47 -3 -58 10 -37
43 20 30 24 31 53 3z m-2646 -10 c1 -7 1 -16 0 -20 0 -5 4 -8 9 -8 6 0 10 -5
10 -10 0 -13 -32 -25 -90 -34 l-45 -6 50 44 c53 48 64 54 66 34z m68 -2 c9
-11 7 -15 -8 -19 -22 -5 -31 0 -31 20 0 17 24 17 39 -1z m1881 -34 c22 -17 21
-42 0 -42 -14 0 -50 42 -44 52 8 12 20 10 44 -10z m442 6 c-8 -8 -17 -8 -34 0
-22 10 -21 11 12 11 26 1 31 -2 22 -11z m-99 -12 c4 -10 1 -13 -9 -9 -7 3 -14
9 -14 14 0 14 17 10 23 -5z m147 -5 c0 -5 -7 -11 -15 -15 -15 -5 -20 5 -8 17
9 10 23 9 23 -2z m-2984 -28 c-10 -10 -19 5 -10 18 6 11 8 11 12 0 2 -7 1 -15
-2 -18z m924 12 c19 -10 21 -15 10 -18 -32 -11 -81 -16 -77 -9 2 4 7 15 10 25
8 20 23 21 57 2z m2306 -12 c-10 -10 -19 5 -10 18 6 11 8 11 12 0 2 -7 1 -15
-2 -18z m-3496 7 c0 -5 -2 -10 -4 -10 -3 0 -8 5 -11 10 -3 6 -1 10 4 10 6 0
11 -4 11 -10z m3090 -21 c0 -5 -9 -9 -20 -9 -19 0 -26 11 -14 23 8 8 34 -3 34
-14z m310 6 c0 -8 -7 -15 -15 -15 -8 0 -15 7 -15 15 0 8 7 15 15 15 8 0 15 -7
15 -15z m-446 -19 c-5 -14 -9 -15 -15 -5 -5 8 -3 17 4 21 15 9 19 4 11 -16z
m-64 -15 c0 -11 -26 -22 -34 -14 -3 4 -6 15 -6 25 0 16 3 17 20 8 11 -6 20
-15 20 -19z m605 20 c7 -12 -31 -25 -45 -16 -6 4 -8 11 -5 16 8 12 42 12 50 0z
m-840 -21 c3 -5 1 -10 -4 -10 -6 0 -11 5 -11 10 0 6 2 10 4 10 3 0 8 -4 11
-10z m735 -6 c0 -8 -4 -12 -10 -9 -5 3 -10 10 -10 16 0 5 5 9 10 9 6 0 10 -7
10 -16z m-210 -4 c12 -7 12 -12 -4 -29 -16 -18 -17 -23 -4 -48 14 -28 14 -29
-11 -30 -14 -1 -20 1 -12 4 9 4 5 12 -15 30 -27 24 -28 25 -5 18 16 -5 21 -4
17 3 -7 12 3 62 13 62 3 0 13 -4 21 -10z m260 -11 c0 -5 -4 -9 -10 -9 -5 0
-10 7 -10 16 0 8 5 12 10 9 6 -3 10 -10 10 -16z m-2308 -21 c-9 -9 -15 -9 -24
0 -10 10 -10 15 2 22 20 12 38 -6 22 -22z m-1072 6 c0 -8 -4 -12 -10 -9 -5 3
-10 10 -10 16 0 5 5 9 10 9 6 0 10 -7 10 -16z m45 -4 c0 -7 -6 -15 -12 -17 -8
-3 -13 4 -13 17 0 13 5 20 13 18 6 -3 12 -11 12 -18z m389 11 c4 -5 -3 -7 -14
-4 -21 6 -45 -14 -45 -37 0 -8 -8 -16 -17 -18 -13 -2 -18 3 -18 17 0 31 79 66
94 42z m2072 -20 c-12 -19 -24 -12 -19 10 4 13 9 17 15 11 6 -6 7 -15 4 -21z
m-2345 -14 c-16 -16 -26 0 -10 19 9 11 15 12 17 4 2 -6 -1 -17 -7 -23z m2842
16 c-2 -7 3 -13 10 -13 8 0 21 -8 31 -18 15 -18 15 -19 -9 -30 -33 -15 -42
-15 -28 -1 9 9 3 16 -25 30 -20 11 -44 19 -54 19 -23 0 -23 17 0 23 31 9 77 3
75 -10z m357 -4 c0 -5 -18 -9 -40 -9 -45 0 -55 17 -12 22 32 4 52 -1 52 -13z
m-2392 -36 c-12 -15 -38 -17 -38 -3 0 6 7 10 16 10 11 0 14 6 9 23 -7 22 -7
22 8 2 11 -14 12 -24 5 -32z m1678 33 c10 -8 16 -18 11 -22 -8 -8 -57 15 -57
28 0 13 24 9 46 -6z m824 0 c0 -2 -7 -6 -15 -10 -8 -3 -15 -1 -15 4 0 6 7 10
15 10 8 0 15 -2 15 -4z m-3007 -43 c21 -10 20 -11 -11 -18 -32 -7 -60 3 -34
12 6 3 13 14 13 26 1 15 3 17 6 6 2 -9 14 -21 26 -26z m137 7 c0 -15 -5 -12
-26 11 -19 22 -19 22 4 10 12 -6 22 -16 22 -21z m2634 21 c3 -5 -1 -12 -10
-15 -20 -8 -29 -1 -19 13 8 13 22 14 29 2z m-3209 -11 c3 -5 1 -10 -4 -10 -6
0 -11 5 -11 10 0 6 2 10 4 10 3 0 8 -4 11 -10z m2465 -13 c-8 -7 -15 -19 -15
-27 0 -18 -24 -24 -45 -11 -12 8 -12 13 4 30 11 12 31 21 45 21 22 -1 24 -3
11 -13z m660 -2 c11 -13 10 -14 -4 -9 -9 3 -16 10 -16 15 0 13 6 11 20 -6z
m-1980 1 c0 -3 -4 -8 -10 -11 -5 -3 -10 -1 -10 4 0 6 5 11 10 11 6 0 10 -2 10
-4z m278 -4 c14 -9 6 -42 -10 -42 -11 0 -37 30 -38 43 0 9 32 9 48 -1z m1383
-35 c-8 -8 -11 -7 -11 4 0 20 13 34 18 19 3 -7 -1 -17 -7 -23z m659 23 c0 -5
-2 -10 -4 -10 -3 0 -8 5 -11 10 -3 6 -1 10 4 10 6 0 11 -4 11 -10z m-2210 -38
c0 -7 -4 -10 -10 -7 -5 3 -10 16 -10 28 0 18 2 19 10 7 5 -8 10 -21 10 -28z
m-323 8 c-1 -11 -7 -20 -13 -20 -7 0 -10 8 -7 20 3 11 9 20 14 20 4 0 7 -9 6
-20z m230 14 c-3 -3 -12 -4 -19 -1 -8 3 -5 6 6 6 11 1 17 -2 13 -5z m903 -4
c0 -5 -7 -10 -16 -10 -8 0 -12 5 -9 10 3 6 10 10 16 10 5 0 9 -4 9 -10z m1260
0 c0 -5 -7 -10 -15 -10 -8 0 -15 5 -15 10 0 6 7 10 15 10 8 0 15 -4 15 -10z
m-2440 -25 c0 -20 -20 -29 -33 -16 -8 8 -8 11 1 11 7 0 12 7 12 16 0 8 5 12
10 9 6 -3 10 -12 10 -20z m2218 -11 c-10 -10 -28 6 -28 24 0 15 1 15 17 -1 9
-9 14 -19 11 -23z m52 26 c0 -5 -4 -10 -10 -10 -5 0 -10 5 -10 10 0 6 5 10 10
10 6 0 10 -4 10 -10z m216 -15 c-31 -26 -60 -33 -54 -12 3 6 14 13 26 15 12 2
22 8 22 13 0 5 8 9 18 9 13 0 11 -6 -12 -25z m-100 1 c23 -1 22 -18 -4 -48 -8
-10 -15 -31 -14 -48 0 -16 -3 -30 -8 -30 -5 0 -7 6 -4 13 3 8 -6 18 -21 25
-14 6 -25 16 -25 22 0 6 5 8 11 4 7 -4 9 -2 5 7 -3 8 -9 22 -12 32 -4 9 -10
17 -15 17 -5 0 -9 4 -9 9 0 4 17 6 38 3 20 -3 47 -5 58 -6z m-2090 -11 c-19
-15 -46 -20 -46 -10 0 6 40 24 55 24 6 0 1 -6 -9 -14z m1619 5 c3 -5 -1 -10
-9 -10 -8 0 -18 5 -21 10 -3 6 1 10 9 10 8 0 18 -4 21 -10z m669 -13 c-3 -9
-12 -13 -21 -10 -14 5 -13 8 2 20 22 15 28 12 19 -10z m-3414 -1 c0 -2 -7 -6
-15 -10 -8 -3 -15 -1 -15 4 0 6 7 10 15 10 8 0 15 -2 15 -4z m1040 -6 c0 -5
-7 -10 -16 -10 -8 0 -12 5 -9 10 3 6 10 10 16 10 5 0 9 -4 9 -10z m450 -5 c10
-12 10 -15 -3 -15 -8 0 -20 7 -27 15 -10 12 -10 15 3 15 8 0 20 -7 27 -15z
m976 -3 c-10 -2 -22 0 -28 6 -6 6 0 7 19 4 21 -5 23 -7 9 -10z m884 2 c0 -2
-9 -4 -21 -4 -11 0 -18 4 -14 10 5 8 35 3 35 -6z m-3290 -41 c0 -7 -11 -13
-24 -13 -13 0 -26 -5 -28 -10 -2 -7 -11 -4 -23 5 -20 16 -20 16 3 10 18 -5 22
-2 22 18 0 14 6 27 13 30 13 5 37 -20 37 -40z m2900 37 c0 -5 -4 -10 -10 -10
-5 0 -10 5 -10 10 0 6 5 10 10 10 6 0 10 -4 10 -10z m-1325 -10 c3 -5 -1 -10
-9 -10 -9 0 -16 5 -16 10 0 6 4 10 9 10 6 0 13 -4 16 -10z m773 -2 c22 -3 13
-17 -15 -24 -16 -4 -43 -16 -61 -26 -40 -22 -39 -22 -52 3 -9 17 -8 24 7 39
17 17 43 19 121 8z m-2072 -33 c12 -9 14 -14 6 -15 -7 0 -10 -5 -6 -11 5 -8 1
-8 -14 0 -24 13 -37 41 -19 41 7 0 22 -7 33 -15z m814 -5 c0 -5 -2 -10 -4 -10
-3 0 -8 5 -11 10 -3 6 -1 10 4 10 6 0 11 -4 11 -10z m-1197 -14 c4 -10 1 -13
-8 -9 -8 3 -12 9 -9 14 7 12 11 11 17 -5z m1537 0 c0 -2 -6 -16 -14 -30 -12
-24 -15 -25 -27 -10 -11 14 -10 18 6 30 18 13 35 18 35 10z m-92 -26 c-13 -21
-38 -27 -38 -10 0 9 28 29 43 30 4 0 2 -9 -5 -20z m178 -43 c-10 -4 -27 -5
-37 -2 -11 4 -19 2 -19 -4 0 -6 -4 -11 -9 -11 -16 0 -5 52 13 65 14 11 21 9
44 -14 25 -24 26 -26 8 -34z m1728 47 c3 -8 2 -12 -4 -9 -6 3 -10 10 -10 16 0
14 7 11 14 -7z m-2450 -12 c2 -4 -4 -9 -15 -9 -10 -1 -19 2 -19 8 0 11 27 12
34 1z m2276 -34 c0 -12 -14 -9 -38 8 -12 8 -20 20 -17 25 6 9 54 -20 55 -33z
m-2849 12 c1 -5 2 -15 3 -20 0 -6 8 -15 16 -20 8 -5 10 -10 4 -10 -15 0 -36
25 -27 33 3 4 1 7 -5 7 -7 0 -12 5 -12 10 0 6 5 10 10 10 6 0 11 -4 11 -10z
m1119 -21 c0 -5 -11 -9 -24 -9 -13 0 -31 -3 -40 -6 -19 -7 -22 16 -5 33 13 13
69 -2 69 -18z m524 -10 c-10 -16 -36 -10 -30 7 3 9 6 21 6 27 0 7 7 3 15 -7 8
-10 12 -23 9 -27z m-1530 12 c4 -5 -3 -7 -14 -4 -23 6 -26 13 -6 13 8 0 17 -4
20 -9z m2886 -29 c6 -4 -22 -22 -35 -22 -5 0 -4 4 3 9 11 7 11 9 -2 14 -9 4
-16 11 -16 17 0 9 19 2 50 -18z m-886 -5 c6 -9 7 -19 3 -23 -9 -9 -37 15 -37
33 0 18 20 12 34 -10z m-964 3 c0 -5 -7 -10 -16 -10 -8 0 -12 5 -9 10 3 6 10
10 16 10 5 0 9 -4 9 -10z m345 1 c-3 -5 -1 -12 5 -16 14 -9 12 -35 -3 -35 -8
0 -12 11 -11 28 2 31 2 32 10 32 3 0 3 -4 -1 -9z m283 -9 c2 -7 -6 -12 -20
-12 -12 -1 -34 -7 -48 -15 l-25 -14 32 -1 c17 0 35 -4 38 -10 3 -6 -5 -10 -19
-10 -13 0 -30 -2 -38 -5 -7 -3 -29 8 -48 23 l-34 29 29 15 c36 18 126 19 133
0z m433 -12 c9 -14 21 -41 24 -59 l7 -35 -26 17 c-14 10 -26 13 -26 7 0 -5 5
-10 10 -10 6 0 10 -8 10 -18 0 -10 5 -23 12 -30 19 -19 0 -27 -20 -9 -10 10
-24 17 -30 17 -7 0 -12 9 -12 20 0 13 -7 20 -19 20 -11 0 -23 5 -27 11 -4 8
-9 7 -15 -2 -7 -11 -9 -11 -9 -1 0 7 11 17 24 22 29 11 40 26 26 35 -7 4 -7
13 1 26 14 26 47 21 70 -11z m-786 -6 c-8 -9 -15 -21 -15 -27 0 -8 -3 -8 -12
1 -9 9 -7 16 7 32 10 11 22 17 26 14 5 -3 2 -12 -6 -20z m-291 -13 c3 -5 -1
-14 -9 -21 -13 -10 -15 -9 -15 9 0 21 14 28 24 12z m-1177 -37 c-9 -10 -38 16
-31 28 4 6 13 4 22 -6 9 -8 13 -19 9 -22z m1657 12 c-3 -8 -16 -13 -30 -12
-22 1 -23 2 -7 14 23 16 44 15 37 -2z m246 -6 c0 -5 -2 -10 -4 -10 -2 0 -12
-3 -22 -7 -16 -6 -17 -5 -4 10 17 19 30 22 30 7z m-1174 -16 c-4 -27 -32 -36
-47 -16 -11 14 -11 15 0 5 17 -15 41 -6 34 13 -3 8 -1 14 5 14 6 0 9 -7 8 -16z
m764 7 c0 -11 -26 -22 -34 -14 -12 12 -5 23 14 23 11 0 20 -4 20 -9z m-373
-34 c-2 -6 -15 -14 -30 -18 -19 -5 -30 -2 -43 13 -18 19 -17 19 9 9 24 -9 27
-8 27 10 0 17 3 18 21 9 11 -6 19 -16 16 -23z m-1347 1 c0 -13 -23 -5 -28 10
-2 7 2 10 12 6 9 -3 16 -11 16 -16z m1645 12 c3 -5 -1 -10 -9 -10 -9 0 -16 5
-16 10 0 6 4 10 9 10 6 0 13 -4 16 -10z m255 6 c0 -3 -4 -8 -10 -11 -5 -3 -10
-1 -10 4 0 6 5 11 10 11 6 0 10 -2 10 -4z m267 -18 c-3 -8 -6 -5 -6 6 -1 11 2
17 5 13 3 -3 4 -12 1 -19z m-1173 -20 c-4 -34 -5 -35 -13 -13 -9 21 -5 35 8
35 4 0 7 -10 5 -22z m206 12 c0 -5 -2 -10 -4 -10 -3 0 -8 5 -11 10 -3 6 -1 10
4 10 6 0 11 -4 11 -10z m-1217 -25 c-3 -8 -9 -15 -14 -15 -10 0 -12 24 -3 33
11 11 24 -3 17 -18z m2077 9 c0 -8 -5 -12 -11 -8 -6 3 -15 0 -20 -7 -7 -11 -9
-11 -9 -1 0 7 -4 10 -10 7 -6 -3 -7 1 -4 9 8 21 54 21 54 0z m-1985 -4 c3 -5
1 -10 -4 -10 -6 0 -11 5 -11 10 0 6 2 10 4 10 3 0 8 -4 11 -10z m215 -21 c0
-6 -4 -7 -10 -4 -5 3 -10 11 -10 16 0 6 5 7 10 4 6 -3 10 -11 10 -16z m756 6
c10 -8 14 -15 8 -15 -5 0 -19 7 -30 15 -10 8 -14 15 -8 15 5 0 19 -7 30 -15z
m384 -1 c0 -8 -4 -12 -10 -9 -5 3 -10 10 -10 16 0 5 5 9 10 9 6 0 10 -7 10
-16z m-1180 -4 c0 -5 -4 -10 -10 -10 -5 0 -10 5 -10 10 0 6 5 10 10 10 6 0 10
-4 10 -10z m974 -32 c12 0 28 -1 36 0 11 0 10 -3 -4 -14 -23 -16 -46 -18 -46
-4 0 6 -6 10 -14 10 -20 0 -29 17 -21 38 6 15 8 14 18 -5 5 -13 19 -24 31 -25z
m1346 11 c0 -6 -4 -7 -10 -4 -5 3 -10 11 -10 16 0 6 5 7 10 4 6 -3 10 -11 10
-16z m-1423 -9 c11 -16 10 -18 -1 -14 -15 6 -30 34 -18 34 4 0 13 -9 19 -20z
m199 6 c15 -16 19 -36 6 -36 -18 0 -45 28 -38 38 9 15 14 15 32 -2z m684 6 c0
-10 -21 -32 -31 -32 -4 0 -5 9 -2 20 5 19 33 29 33 12z m-560 -12 c0 -5 -4
-10 -10 -10 -5 0 -10 5 -10 10 0 6 5 10 10 10 6 0 10 -4 10 -10z m165 0 c3 -5
-1 -10 -9 -10 -9 0 -16 5 -16 10 0 6 4 10 9 10 6 0 13 -4 16 -10z m75 -20 c0
-5 -4 -10 -9 -10 -6 0 -13 5 -16 10 -3 6 1 10 9 10 9 0 16 -4 16 -10z m985
-10 c3 -5 -1 -10 -9 -10 -9 0 -16 5 -16 10 0 6 4 10 9 10 6 0 13 -4 16 -10z
m-1051 -9 c9 -15 -23 -36 -36 -23 -5 5 -7 15 -4 21 9 13 33 14 40 2z m636 0
c0 -5 -7 -12 -16 -15 -24 -9 -28 -7 -14 9 14 17 30 20 30 6z m-715 -11 c-3 -5
-12 -10 -18 -10 -7 0 -6 4 3 10 19 12 23 12 15 0z m1229 -5 c-4 -8 -10 -15
-15 -15 -5 0 -9 7 -9 15 0 8 7 15 15 15 9 0 12 -6 9 -15z m-584 -5 c0 -5 -5
-10 -11 -10 -5 0 -7 5 -4 10 3 6 8 10 11 10 2 0 4 -4 4 -10z m-642 -40 c-2 -6
-8 -6 -18 0 -13 9 -13 11 0 20 15 10 25 0 18 -20z m-1443 -10 c-5 -8 -11 -8
-17 -2 -6 6 -7 16 -3 22 5 8 11 8 17 2 6 -6 7 -16 3 -22z m1495 15 c0 -2 -7
-8 -15 -15 -12 -10 -15 -10 -15 2 0 8 7 15 15 15 8 0 15 -1 15 -2z m-3919 -15
c10 0 19 -5 19 -11 0 -6 -6 -9 -14 -6 -10 4 -16 -5 -20 -29 -4 -19 -13 -34
-20 -34 -7 0 -26 -11 -42 -25 -16 -14 -32 -25 -36 -25 -3 0 -9 -22 -13 -50 -4
-27 -11 -50 -16 -50 -5 0 -9 7 -9 15 0 8 -11 17 -24 21 -13 3 -26 14 -29 24
-2 9 -25 27 -50 40 -43 22 -74 61 -62 81 14 22 239 64 283 53 8 -2 22 -4 33
-4z m2941 -35 c-4 -25 -5 -25 -22 -8 -15 16 -15 19 -1 25 26 11 28 9 23 -17z
m-184 -29 c-3 -23 -48 -37 -48 -14 0 7 -3 23 -6 35 -6 22 -5 22 25 12 24 -9
31 -16 29 -33z m1732 10 c0 -34 -84 -71 -101 -45 -20 33 -10 57 29 66 40 10
72 1 72 -21z m-1937 4 c-3 -11 -9 -20 -14 -20 -11 0 -11 3 -3 24 9 23 23 20
17 -4z m1337 10 c0 -5 -7 -10 -15 -10 -8 0 -15 5 -15 10 0 6 7 10 15 10 8 0
15 -4 15 -10z m-1390 -10 c0 -12 -28 -25 -36 -17 -9 9 6 27 22 27 8 0 14 -5
14 -10z m287 -22 c-3 -8 -6 -5 -6 6 -1 11 2 17 5 13 3 -3 4 -12 1 -19z m-277
-43 c0 -26 -14 -31 -39 -16 -19 12 -6 41 19 41 15 0 20 -7 20 -25z m274 16 c3
-5 -1 -11 -9 -14 -9 -4 -12 -1 -8 9 6 16 10 17 17 5z m1534 -30 c4 -44 -15
-91 -38 -91 -10 0 -28 8 -40 18 -17 13 -20 24 -15 45 6 23 11 26 36 22 16 -3
29 -1 29 5 0 5 -10 10 -21 10 -18 0 -20 2 -9 15 7 9 23 15 34 13 16 -2 22 -11
24 -37z m-1695 5 c12 -9 14 -16 8 -21 -6 -3 -11 -1 -11 4 0 6 -6 11 -14 11 -8
0 -18 5 -21 10 -9 15 17 12 38 -4z m244 8 c-3 -3 -12 -4 -19 -1 -8 3 -5 6 6 6
11 1 17 -2 13 -5z m1343 -34 c0 -5 -2 -10 -4 -10 -3 0 -8 5 -11 10 -3 6 -1 10
4 10 6 0 11 -4 11 -10z m-55 -19 c3 -5 -8 -9 -24 -9 -17 1 -28 5 -25 10 7 11
41 10 49 -1z m-1305 -101 c0 -5 -4 -10 -10 -10 -5 0 -10 5 -10 10 0 6 5 10 10
10 6 0 10 -4 10 -10z m2130 -40 c0 -5 -10 -10 -22 -10 -19 0 -20 2 -8 10 19
13 30 13 30 0z m-205 -40 c-27 -12 -43 -12 -25 0 8 5 22 9 30 9 10 0 8 -3 -5
-9z m-1440 -54 c33 -3 160 -8 283 -12 122 -4 225 -11 228 -15 6 -11 27 -11
-241 1 -120 5 -255 10 -300 10 -44 1 -111 4 -150 7 l-70 7 60 11 c33 6 76 8
95 4 19 -4 62 -10 95 -13z m-505 0 c9 -12 8 -15 -9 -13 -21 1 -26 8 -14 20 9
9 9 9 23 -7z m177 8 c-3 -3 -12 -4 -19 -1 -8 3 -5 6 6 6 11 1 17 -2 13 -5z
m1680 0 c-3 -3 -12 -4 -19 -1 -8 3 -5 6 6 6 11 1 17 -2 13 -5z m-4784 -19 c4
-6 11 -5 18 5 8 12 9 11 4 -7 -5 -18 -1 -22 25 -28 16 -4 30 -10 30 -15 0 -13
-41 -20 -120 -19 -72 0 -182 15 -131 18 27 1 101 40 101 54 0 12 63 5 73 -8z
m4682 -1 c-11 -8 -26 -12 -33 -9 -8 3 -21 6 -30 6 -9 1 -1 5 18 9 58 12 67 11
45 -6z m-6205 -14 c0 -5 -2 -10 -4 -10 -3 0 -8 5 -11 10 -3 6 -1 10 4 10 6 0
11 -4 11 -10z m4615 -10 c3 -5 1 -10 -4 -10 -6 0 -11 5 -11 10 0 6 2 10 4 10
3 0 8 -4 11 -10z m1323 4 c27 -8 29 -39 3 -41 -14 -1 -18 3 -14 14 5 13 1 15
-20 9 -25 -6 -35 2 -20 17 8 8 21 9 51 1z m-88 -8 c0 -16 -14 -36 -26 -36 -8
0 -14 2 -14 4 0 2 -3 11 -6 20 -5 12 0 16 20 16 14 0 26 -2 26 -4z"/>
<path d="M5590 4248 c0 -6 -8 -20 -17 -31 -17 -20 -17 -20 2 -12 11 4 28 7 37
7 11 0 15 5 11 14 -3 7 -9 11 -14 8 -5 -3 -6 2 -3 10 3 9 1 16 -5 16 -6 0 -11
-5 -11 -12z"/>
<path d="M5464 4154 c-18 -14 -18 -15 4 -4 12 6 22 13 22 15 0 8 -5 6 -26 -11z"/>
<path d="M5430 3940 c0 -5 5 -10 11 -10 5 0 7 5 4 10 -3 6 -8 10 -11 10 -2 0
-4 -4 -4 -10z"/>
<path d="M5490 3823 c0 -5 5 -15 10 -23 7 -11 12 -12 21 -3 6 6 8 16 5 22 -8
12 -36 15 -36 4z"/>
<path d="M5690 3675 c0 -2 10 -10 23 -16 20 -11 21 -11 8 4 -13 16 -31 23 -31
12z"/>
<path d="M5477 3663 c-4 -3 -7 -15 -7 -25 0 -28 25 -22 28 7 2 24 -8 32 -21
18z"/>
<path d="M5812 3653 c2 -10 12 -19 23 -21 15 -2 17 -1 6 6 -7 6 -10 15 -7 21
4 6 0 11 -9 11 -10 0 -15 -7 -13 -17z"/>
<path d="M5805 3280 c-3 -5 -1 -10 4 -10 6 0 11 5 11 10 0 6 -2 10 -4 10 -3 0
-8 -4 -11 -10z"/>
<path d="M3790 2134 c0 -9 -9 -18 -19 -21 -25 -6 -36 -34 -19 -45 7 -4 31 -8
52 -8 22 0 47 -7 57 -16 17 -15 64 -23 74 -12 9 9 -35 87 -57 102 -30 22 -88
21 -88 0z"/>
<path d="M4166 2457 c3 -10 9 -15 12 -12 3 3 0 11 -7 18 -10 9 -11 8 -5 -6z"/>
<path d="M5280 2343 c0 -4 8 -27 18 -50 13 -33 22 -43 40 -43 17 0 22 6 22 25
0 14 -5 25 -11 25 -5 0 -8 4 -5 9 3 5 0 13 -7 19 -18 14 -57 25 -57 15z"/>
<path d="M6818 2503 c7 -3 16 -2 19 1 4 3 -2 6 -13 5 -11 0 -14 -3 -6 -6z"/>
<path d="M5003 2223 c-7 -2 -13 -9 -13 -15 0 -7 5 -6 14 1 10 8 16 9 21 1 3
-5 14 -10 23 -10 15 1 15 2 -2 15 -21 16 -24 16 -43 8z"/>
<path d="M5120 2210 c-13 -8 -12 -10 3 -10 9 0 17 5 17 10 0 12 -1 12 -20 0z"/>
<path d="M5358 2073 c6 -2 18 -2 25 0 6 3 1 5 -13 5 -14 0 -19 -2 -12 -5z"/>
<path d="M4912 5358 c4 -60 36 -77 110 -60 109 26 111 27 121 56 14 41 -1 46
-126 46 l-108 0 3 -42z"/>
<path d="M5521 5391 c-8 -5 -11 -16 -7 -28 6 -20 77 -44 171 -58 46 -7 68 9
80 56 6 23 3 27 -26 33 -46 9 -202 7 -218 -3z"/>
<path d="M5623 4683 c9 -2 25 -2 35 0 9 3 1 5 -18 5 -19 0 -27 -2 -17 -5z"/>
<path d="M5428 4663 c7 -3 16 -2 19 1 4 3 -2 6 -13 5 -11 0 -14 -3 -6 -6z"/>
<path d="M5540 4649 l-75 -5 98 -2 c93 -2 122 2 75 9 -13 2 -57 1 -98 -2z"/>
<path d="M5708 4653 c7 -3 16 -2 19 1 4 3 -2 6 -13 5 -11 0 -14 -3 -6 -6z"/>
<path d="M5761 4633 c-13 -15 -13 -16 7 -11 12 4 25 2 28 -3 4 -6 10 -6 17 0
12 9 25 11 109 10 25 0 49 5 53 11 4 7 -28 10 -97 10 -82 -1 -106 -4 -117 -17z"/>
<path d="M4943 4545 c-29 -13 -53 -29 -53 -35 0 -6 27 3 60 20 55 28 71 40 53
40 -5 0 -32 -11 -60 -25z"/>
<path d="M4839 4509 l-24 -20 30 17 c39 24 40 24 28 24 -6 0 -21 -9 -34 -21z"/>
<path d="M6650 4320 c0 -5 5 -10 11 -10 5 0 7 5 4 10 -3 6 -8 10 -11 10 -2 0
-4 -4 -4 -10z"/>
<path d="M7093 2237 c-35 -24 -57 -62 -47 -79 4 -6 3 -9 -2 -5 -5 3 -22 -12
-37 -34 -16 -21 -24 -39 -18 -39 5 0 13 9 16 21 5 16 10 18 21 8 10 -8 14 -8
14 0 0 6 -5 11 -11 11 -5 0 -7 5 -3 11 3 6 18 -13 33 -43 28 -56 62 -72 69
-33 2 11 10 27 18 36 8 9 11 19 7 22 -3 4 2 7 11 7 11 0 16 5 13 14 -3 7 6 25
19 39 40 44 28 70 -36 81 -26 4 -43 0 -67 -17z"/>
<path d="M3005 845 c-236 -24 -305 -42 -305 -80 0 -7 -10 -22 -23 -32 -13 -10
-22 -24 -19 -31 2 -6 -3 -12 -11 -12 -18 0 -29 -24 -21 -45 5 -11 2 -13 -10
-9 -10 4 -16 1 -16 -9 0 -8 7 -18 16 -21 10 -4 14 -14 11 -25 -4 -15 3 -20 35
-25 42 -7 167 6 283 29 39 7 104 19 145 25 96 15 197 38 232 51 23 10 26 14
17 31 -5 10 -9 26 -8 36 1 9 -4 31 -10 49 -10 25 -18 31 -39 30 -21 -2 -28 3
-30 21 -3 18 -10 22 -40 22 -20 0 -46 2 -57 4 -11 2 -78 -2 -150 -9z"/>
<path d="M7898 51 c-86 -9 -160 -19 -164 -23 -4 -5 -23 -8 -41 -8 -21 0 -32
-4 -28 -10 4 -7 94 -10 258 -9 256 2 324 7 257 20 l-35 6 40 3 c22 1 51 6 65
10 22 7 20 8 -15 10 -22 1 -48 2 -57 1 -10 -1 -18 3 -18 8 0 14 -67 12 -262
-8z"/>
<path d="M2742 17 c3 -9 41 -12 134 -14 142 -2 117 10 -44 21 -73 4 -93 3 -90
-7z"/>
</g>
</svg>
